<svg width="72" height="85" viewBox="0 0 72 85" fill="none" xmlns="http://www.w3.org/2000/svg">
<path d="M50.2213 23.893C45.1561 23.893 41.0893 25.5066 38.0192 27.8127C38.8633 25.7377 40.0918 23.893 41.5489 22.4335C44.2353 19.7439 47.9961 18.1303 52.0628 18.1303C55.5166 18.1303 59.5834 19.898 62.3466 22.2803L70.3267 9.90828C65.8763 6.29587 59.5834 4.37498 52.2922 4.37498C42.4696 4.37498 35.0258 8.06355 29.6546 13.4428C26.3647 16.7373 23.8509 20.7358 22.0948 24.9961H30.2746C31.0236 24.9961 31.7089 25.4129 32.0568 26.0783C32.4039 26.7437 32.3559 27.5483 31.9286 28.1664L19.7876 45.7906C20.663 49.1728 22.3145 52.1233 24.6662 54.4784C28.3502 58.167 33.9516 60.319 40.7048 60.319C53.9035 60.319 64.7244 50.7899 64.7244 38.0335C64.7244 29.119 57.9712 23.8939 50.2213 23.8939V23.893ZM25.6314 0L1.67285 36.7553H12.3045L25.6314 0ZM18.5765 27.016L5.52338 62.9447L30.2746 27.0151H18.5773L18.5765 27.016ZM40.6281 47.715C39.0935 47.715 37.789 47.1004 36.9441 46.2547C36.1001 45.4098 35.6397 44.1797 35.6397 42.7964C35.6397 38.8005 38.4796 35.0349 42.4696 35.0349C45.4631 35.0349 47.4581 37.1869 47.4581 39.9535C47.4581 43.9494 44.619 47.715 40.6281 47.715Z" fill="#FFC800"/>
<path d="M16.3043 78.5509C16.2249 78.585 16.1438 78.6262 16.0662 78.656C15.3111 78.9256 14.5368 79.0604 13.7416 79.0604C12.9464 79.0604 12.3012 78.9361 11.6856 78.6875C11.0891 78.4178 10.5729 78.0448 10.1361 77.5677C9.69925 77.0905 9.36181 76.5206 9.1229 75.8569C8.88485 75.1731 8.7654 74.4272 8.7654 73.6182C8.7654 72.7681 8.88485 72.0116 9.1229 71.348C9.36094 70.6843 9.69925 70.1144 10.1361 69.6372C10.5729 69.1609 11.0996 68.7976 11.7152 68.5489C12.3509 68.3003 13.0563 68.176 13.8306 68.176C14.7644 68.176 15.6085 68.3835 16.3636 68.7976C17.1379 69.1916 17.8537 69.7825 18.5094 70.5705L23.0087 66.4354C21.9563 65.088 20.6152 64.0514 18.9864 63.3256C17.3776 62.6006 15.5396 62.2373 13.4739 62.2373C11.7457 62.2373 10.1562 62.5175 8.7061 63.0769C7.27611 63.6163 6.03445 64.3928 4.98113 65.4093C3.92782 66.4249 3.11342 67.6279 2.53793 69.0165C1.96157 70.4059 1.67383 71.9398 1.67383 73.6191C1.67383 75.2983 1.96157 76.8322 2.53793 78.2208C3.11429 79.6094 3.9191 80.8124 4.95149 81.828C6.0048 82.8436 7.236 83.6315 8.64681 84.191C10.0768 84.7303 11.6367 85 13.3248 85C14.8542 85 16.4342 84.7618 18.063 84.2847C19.6918 83.8075 21.1419 83.1237 22.414 82.2325V73.0281H16.3051V78.5509H16.3043Z" fill="white"/>
<path d="M28.1506 82.1916L23.3252 66.6152H28.5604L31.1841 75.465L33.9673 66.6152H38.6419L41.2725 75.585L44.0497 66.6152H48.8759L44.0497 82.1916H38.5991L36.1664 73.8628L33.6003 82.1916H28.1497H28.1506Z" fill="white"/>
<path d="M50.2208 23.893C45.1556 23.893 41.0888 25.5066 38.0187 27.8127C38.8628 25.7377 40.0913 23.893 41.5484 22.4335C44.2348 19.7439 47.9956 18.1303 52.0623 18.1303C55.5161 18.1303 59.5829 19.898 62.3461 22.2803L70.3262 9.9083C65.8758 6.29589 59.5829 4.375 52.2917 4.375C42.4691 4.375 35.0253 8.06357 29.6541 13.4428C26.3642 16.7374 23.8504 20.7359 22.0943 24.9962H30.2741C31.0231 24.9962 31.7084 25.4129 32.0563 26.0783C32.4034 26.7437 32.3554 27.5483 31.9281 28.1664L19.7871 45.7907C20.6625 49.1728 22.314 52.1233 24.6657 54.4785C28.3497 58.167 33.9511 60.3191 40.7043 60.3191C53.903 60.3191 64.7239 50.7899 64.7239 38.0327C64.7239 29.1181 57.9707 23.893 50.2208 23.893ZM40.6276 47.7151C39.093 47.7151 37.7885 47.1004 36.9436 46.2547C36.0996 45.4098 35.6392 44.1797 35.6392 42.7964C35.6392 38.8005 38.4791 35.0349 42.4691 35.0349C45.4625 35.0349 47.4576 37.1869 47.4576 39.9527C47.4576 43.9486 44.6185 47.7142 40.6276 47.7142V47.7151Z" fill="white"/>
<path d="M55.578 76.0886H48.3818L49.8528 70.6192H57.049L58.9577 63.3936H64.6036L62.6949 70.6192H69.8911L68.4201 76.0886H61.2239L59.3152 83.274H53.6693L55.578 76.0886Z" fill="#FFC800"/>
</svg>
