<svg width="28" height="28" viewBox="0 0 28 28" fill="none" xmlns="http://www.w3.org/2000/svg">
<path d="M9.90717 2.33333L3.11108 12.7593H6.12687L9.90717 2.33333ZM7.90596 9.99668L4.20333 20.1882L11.2242 9.99643L7.90596 9.99668Z" fill="#D1D1D0"/>
<path d="M8.81694 23.8373C8.79444 23.847 8.77143 23.8587 8.74942 23.8671C8.53523 23.9436 8.31559 23.9819 8.09002 23.9819C7.86445 23.9819 7.68142 23.9466 7.5068 23.8761C7.33762 23.7996 7.19119 23.6938 7.06728 23.5584C6.94336 23.4231 6.84764 23.2614 6.77987 23.0731C6.71235 22.8792 6.67846 22.6676 6.67846 22.4381C6.67846 22.197 6.71235 21.9824 6.77987 21.7941C6.8474 21.6059 6.94336 21.4442 7.06728 21.3089C7.19119 21.1738 7.34059 21.0707 7.51521 21.0002C7.69552 20.9296 7.89561 20.8944 8.11525 20.8944C8.38015 20.8944 8.61957 20.9532 8.83376 21.0707C9.0534 21.1825 9.25646 21.3501 9.44246 21.5736L10.7187 20.4006C10.4202 20.0184 10.0398 19.7244 9.57775 19.5185C9.12142 19.3129 8.60003 19.2098 8.01409 19.2098C7.52386 19.2098 7.07297 19.2893 6.66165 19.448C6.25601 19.601 5.9038 19.8212 5.60502 20.1096C5.30624 20.3977 5.07522 20.7389 4.91198 21.1328C4.74849 21.5269 4.66687 21.962 4.66687 22.4384C4.66687 22.9147 4.74849 23.3498 4.91198 23.7437C5.07547 24.1376 5.30376 24.4788 5.59661 24.7669C5.89539 25.055 6.24463 25.2785 6.64483 25.4372C7.05046 25.5902 7.49295 25.6667 7.97179 25.6667C8.40562 25.6667 8.8538 25.5991 9.31582 25.4638C9.77785 25.3284 10.1892 25.1345 10.55 24.8816V22.2707H8.81719V23.8373H8.81694Z" fill="#D1D1D0"/>
<path d="M12.1773 24.8699L10.8085 20.4515H12.2935L13.0378 22.9619L13.8273 20.4515H15.1533L15.8995 22.9959L16.6872 20.4515H18.0563L16.6872 24.8699H15.1411L14.4511 22.5074L13.7232 24.8699H12.177H12.1773Z" fill="#D1D1D0"/>
<path d="M19.9574 23.1389H17.9161L18.3333 21.5875H20.3746L20.916 19.5378H22.5175L21.9761 21.5875H24.0174L23.6001 23.1389H21.5589L21.0174 25.1771H19.4159L19.9574 23.1389Z" fill="#D1D1D0"/>
<path d="M19.0257 2.29656C21.1758 2.29664 23.0825 2.86304 24.4564 3.9782L24.804 4.26043L24.5609 4.63738L22.2972 8.14617L21.9857 8.62957L21.5511 8.25457C20.8381 7.63989 19.7962 7.19796 18.9603 7.19793C18.0204 7.19793 17.1492 7.54134 16.4954 8.11785C17.0812 7.9367 17.729 7.8327 18.4378 7.8327C19.6472 7.8327 20.7999 8.24083 21.6556 9.0202C22.5173 9.80522 23.0519 10.9443 23.0521 12.3434C23.0521 16.28 19.7149 19.1656 15.7386 19.1657C13.7199 19.1657 11.9931 18.5213 10.8353 17.362C10.1016 16.6272 9.58992 15.71 9.32062 14.6696L9.26398 14.4489L9.39288 14.2604L12.8372 9.26141L12.8499 9.22332L12.8421 9.18426C12.8291 9.15971 12.8048 9.14617 12.7796 9.14617H9.71222L9.99738 8.45574C10.5171 7.19487 11.2645 6.00251 12.2503 5.01531C13.8636 3.39975 16.1011 2.29656 19.0257 2.29656ZM16.2386 11.9938C15.4618 11.9941 14.8021 12.752 14.8021 13.695C14.8021 13.9792 14.8958 14.1929 15.0257 14.3229C15.1722 14.4694 15.4148 14.5904 15.7161 14.5905C16.4933 14.5905 17.1536 13.8316 17.1536 12.8884C17.1535 12.3742 16.8057 11.9938 16.2386 11.9938Z" stroke="#D1D1D0"/>
</svg>
