<svg width="28" height="28" viewBox="0 0 28 28" fill="none" xmlns="http://www.w3.org/2000/svg">
<path d="M13.4873 3.64623C14.6772 3.0925 16.0182 2.82426 17.4956 2.82422C18.3461 2.82422 19.1677 2.92389 19.9583 3.12403L19.9595 3.12293C20.7647 3.31108 21.4729 3.587 22.0681 3.96154L22.6025 4.29788L22.306 4.85547L20.6564 7.95437L20.3279 8.5706C20.9571 8.93895 21.4822 9.42269 21.8933 10.0232L22.0792 10.312C22.483 11.0007 22.6766 11.7867 22.6766 12.6487C22.6766 13.5798 22.4615 14.4279 22.0173 15.1722L21.8127 15.4853C21.2454 16.2798 20.4807 16.8839 19.5413 17.3041L19.5423 17.3052C18.6162 17.7255 17.5941 17.9291 16.4878 17.9292C15.2828 17.9292 14.1804 17.735 13.1931 17.3329L12.777 17.1481C11.8311 16.6903 11.1014 16.1167 10.6085 15.659C10.4763 15.5362 10.3533 15.4121 10.2366 15.2862M16.5154 7.80943C16.7802 7.77817 17.0556 7.76297 17.3407 7.76296C18.2405 7.76296 19.2613 8.02966 20.0403 8.407M16.1768 12.1828C16.0013 12.1828 15.8769 12.2186 15.7841 12.2691C15.6827 12.3243 15.602 12.3979 15.5351 12.4971C15.4931 12.5751 15.4599 12.6874 15.4599 12.8555C15.46 13.0232 15.4932 13.1348 15.5351 13.2128C15.5989 13.3074 15.6759 13.3776 15.7708 13.4319C15.8686 13.4762 15.9986 13.5082 16.1768 13.5082C16.3598 13.5082 16.492 13.4748 16.5906 13.4285C16.6987 13.3719 16.7662 13.3057 16.8119 13.2272C16.8574 13.1487 16.8937 13.0334 16.8938 12.8555C16.8938 12.5961 16.8195 12.465 16.7256 12.3787L16.719 12.3731L16.7134 12.3676C16.6006 12.2584 16.4427 12.1828 16.1768 12.1828Z" stroke="#FFC800" stroke-width="1.2"/>
<path d="M12.8464 2.56513L10.4691 9.56403L12.8348 9.56235L6.3735 18.7164L5.66015 19.7259H5.44434L5.787 18.7164L8.10662 11.8858L5.74088 11.8875L12.3208 2.56513L13.0342 1.55566H13.189L12.8464 2.56513Z" stroke="#FFC800" stroke-width="1.2"/>
<path d="M6.23066 26.5734C5.77855 26.5734 5.36102 26.5016 4.97805 26.3578C4.60039 26.2086 4.27063 25.9986 3.98871 25.7277C3.71214 25.4568 3.49671 25.1362 3.34246 24.7659C3.18821 24.3955 3.11108 23.9865 3.11108 23.5387C3.11108 23.0909 3.18821 22.6819 3.34246 22.3115C3.49671 21.9411 3.71479 21.6205 3.9967 21.3496C4.2786 21.0787 4.61103 20.8715 4.994 20.7278C5.38229 20.5786 5.8078 20.5039 6.27055 20.5039C6.82372 20.5039 7.31575 20.6007 7.74659 20.794C8.18276 20.9875 8.54178 21.264 8.82365 21.6233L7.61891 22.7261C7.44342 22.5161 7.25185 22.3585 7.04446 22.2534C6.84234 22.1429 6.61629 22.0876 6.36629 22.0876C6.15886 22.0876 5.97003 22.1208 5.79982 22.1871C5.63494 22.2534 5.49399 22.3502 5.37697 22.4773C5.25995 22.6044 5.16953 22.7565 5.1057 22.9334C5.04188 23.1103 5.00996 23.312 5.00996 23.5387C5.00996 23.7543 5.04188 23.9533 5.1057 24.1357C5.16953 24.3126 5.25995 24.4645 5.37697 24.5918C5.49399 24.7189 5.63228 24.8183 5.79185 24.8903C5.95673 24.9566 6.14024 24.9897 6.34236 24.9897C6.55512 24.9897 6.76256 24.9538 6.96468 24.8819C7.1668 24.8045 7.38225 24.6747 7.61098 24.4922L8.66413 25.8355C8.32369 26.0731 7.93545 26.2557 7.49928 26.3828C7.06308 26.5099 6.64023 26.5734 6.23066 26.5734ZM7.02851 25.5868V23.3811H8.66413V25.8355L7.02851 25.5868Z" fill="#FFC800"/>
<path d="M11.069 26.5734L9.18091 20.5039H11.2292L12.2558 23.9522L13.3449 20.5039H15.174L16.2031 23.9991L17.2897 20.5039H19.1779L17.2897 26.5734H15.1572L14.2055 23.328L13.2016 26.5734H11.069Z" fill="#FFC800"/>
<path d="M22.5554 26.4449C22.1188 26.4449 21.7649 26.0909 21.7649 25.6544V24.0478H20.1966C19.7811 24.0478 19.4443 23.711 19.4443 23.2955V23.2955C19.4443 22.88 19.7811 22.5432 20.1966 22.5432H21.7649V21.0132C21.7649 20.5766 22.1188 20.2227 22.5554 20.2227V20.2227C22.992 20.2227 23.346 20.5766 23.346 21.0132V22.5432H24.9143C25.3298 22.5432 25.6666 22.88 25.6666 23.2955V23.2955C25.6666 23.711 25.3298 24.0478 24.9143 24.0478H23.346V25.6544C23.346 26.0909 22.992 26.4449 22.5554 26.4449V26.4449Z" fill="#FFC800"/>
</svg>
