<svg xmlns="http://www.w3.org/2000/svg" width="60" height="60" viewBox="0 0 60 60" fill="none"><rect width="60" height="60" rx="30" fill="#FFC800"></rect><path d="M24.1532 13.3333L14.4445 28.2276H18.7527L24.1532 13.3333ZM21.2943 24.281L16.0048 38.8403L26.0347 24.2806L21.2943 24.281Z" fill="#262626"></path><path d="M22.5956 44.0533C22.5635 44.0672 22.5306 44.0838 22.4991 44.0959C22.1932 44.2052 21.8794 44.2598 21.5571 44.2598C21.2349 44.2598 20.9734 44.2094 20.724 44.1087C20.4823 43.9994 20.2731 43.8483 20.0961 43.6549C19.9191 43.4615 19.7823 43.2306 19.6855 42.9616C19.589 42.6845 19.5406 42.3823 19.5406 42.0544C19.5406 41.71 19.589 41.4034 19.6855 41.1345C19.782 40.8656 19.9191 40.6346 20.0961 40.4412C20.2731 40.2482 20.4865 40.101 20.736 40.0002C20.9936 39.8995 21.2794 39.8491 21.5932 39.8491C21.9716 39.8491 22.3136 39.9332 22.6196 40.101C22.9334 40.2606 23.2235 40.5001 23.4892 40.8194L25.3124 39.1438C24.886 38.5978 24.3425 38.1777 23.6825 37.8836C23.0306 37.5898 22.2857 37.4426 21.4487 37.4426C20.7484 37.4426 20.1042 37.5561 19.5166 37.7828C18.9371 38.0014 18.434 38.3161 18.0071 38.728C17.5803 39.1395 17.2503 39.627 17.0171 40.1897C16.7835 40.7527 16.6669 41.3743 16.6669 42.0548C16.6669 42.7353 16.7835 43.3569 17.0171 43.9196C17.2506 44.4823 17.5768 44.9697 17.9951 45.3813C18.422 45.7928 18.9209 46.1121 19.4926 46.3388C20.0721 46.5574 20.7042 46.6667 21.3882 46.6667C22.008 46.6667 22.6483 46.5702 23.3083 46.3768C23.9683 46.1835 24.5559 45.9064 25.0715 45.5452V41.8153H22.596V44.0533H22.5956Z" fill="#262626"></path><path d="M27.3961 45.5285L25.4407 39.2165H27.5621L28.6253 42.8026L29.7532 39.2165H31.6474L32.7134 42.8512L33.8388 39.2165H35.7946L33.8388 45.5285H31.6301L30.6443 42.1534L29.6044 45.5285H27.3957H27.3961Z" fill="#262626"></path><path d="M38.5105 43.0556H35.5944L36.1904 40.8392H39.1066L39.88 37.9112H42.1679L41.3944 40.8392H44.3105L43.7144 43.0556H40.7983L40.0249 45.9673H37.737L38.5105 43.0556Z" fill="#262626"></path><path d="M42.2171 27.6338C42.2169 24.1345 39.6486 22.0378 36.6331 21.9101L36.3401 21.9043C34.2876 21.9043 32.6389 22.5586 31.3948 23.4931C31.7369 22.6523 32.2351 21.9039 32.8255 21.3125C33.9141 20.2227 35.4384 19.5693 37.0862 19.5693L37.3509 19.5771C38.6893 19.6593 40.2034 20.3459 41.2532 21.2509L44.4866 16.2373C42.7959 14.865 40.4491 14.0947 37.7278 14.0039L37.179 13.9951C33.1987 13.9951 30.1818 15.4901 28.0052 17.6699L27.7591 17.9228C26.546 19.2072 25.6089 20.733 24.9417 22.3515H28.2571C28.5605 22.3517 28.8379 22.5205 28.9788 22.79C29.1194 23.0596 29.1 23.3853 28.9271 23.6357L24.0071 30.7783C24.3619 32.1487 25.0308 33.3445 25.9837 34.2988C27.3833 35.7001 29.4661 36.554 31.9759 36.6552L32.4837 36.665C37.6648 36.6649 41.942 33.0414 42.2044 28.1152L42.2171 27.6338ZM34.22 28.4121C34.22 27.832 33.8477 27.4189 33.1985 27.4189C32.2914 27.4189 31.431 28.3257 31.431 29.5644C31.431 29.9086 31.5444 30.1357 31.6673 30.2588C31.8234 30.415 32.0978 30.5576 32.4525 30.5576V31.5576L32.2239 31.5459C31.7014 31.4936 31.2589 31.2657 30.9593 30.9658C30.6601 30.6662 30.4801 30.2471 30.4398 29.7715L30.431 29.5644C30.431 27.9452 31.5817 26.4189 33.1985 26.4189C34.4115 26.4189 35.22 27.2914 35.22 28.4121L35.2064 28.7148C35.0739 30.2164 33.9684 31.5575 32.4525 31.5576V30.5576C33.3599 30.5575 34.22 29.6508 34.22 28.4121ZM43.2171 27.6338C43.2171 33.4391 38.2969 37.6649 32.4837 37.665C29.5409 37.665 26.9952 36.7255 25.2767 35.0049C24.1905 33.917 23.4361 32.5609 23.0394 31.0283L22.9251 30.5869L27.9085 23.3515H23.4485L24.0179 21.9707C24.7727 20.1395 25.8599 18.4032 27.2982 16.9629C29.654 14.6036 32.9219 12.9951 37.179 12.9951C40.2977 12.9951 43.091 13.816 45.1175 15.4609L45.8138 16.0263L41.471 22.7588L40.5999 22.0078C39.6219 21.1648 38.198 20.5694 37.0862 20.5693C36.3706 20.5693 35.6853 20.7166 35.0657 20.9834C35.4746 20.9317 35.8997 20.9043 36.3401 20.9043C38.1311 20.9044 39.8485 21.509 41.1292 22.6758C42.422 23.8535 43.217 25.5577 43.2171 27.6338Z" fill="#262626"></path></svg>