<svg width="119" height="135" viewBox="0 0 119 135" fill="none" xmlns="http://www.w3.org/2000/svg">
<g clip-path="url(#clip0_2770_29916)">
<path d="M104.737 65.1652C104.737 60.9564 103.761 57.1923 101.778 53.9364L100.803 52.4752C98.7369 49.5846 96.109 47.2499 92.9192 45.4552L91.4978 44.6611C87.7129 42.914 82.8207 41.6434 78.4573 41.5005H77.5979C76.9464 41.5005 76.3045 41.5127 75.6749 41.5397C74.3679 41.5959 73.189 40.6736 73.0303 39.375C72.8698 38.062 73.8122 36.864 75.133 36.7898C75.949 36.7439 76.7776 36.7199 77.6144 36.7199H78.6392C83.581 36.9105 88.936 38.2764 93.1836 40.1664L93.8282 38.9911L102.985 22.4734L103.547 21.457L102.538 20.8376C99.8278 19.2017 96.6048 17.9152 92.9026 16.9782L91.5639 16.6605C87.3823 15.644 83.0355 15.1358 78.5069 15.1358C71.5653 15.1358 65.2516 16.1999 59.5826 18.3599C58.31 18.8523 56.839 18.3282 56.2605 17.137C55.6821 15.9458 56.211 14.5164 57.4836 14.024C63.8633 11.5464 70.9042 10.3711 78.4904 10.3711H79.416C83.5314 10.4346 87.5311 10.8793 91.4151 11.737L91.7953 11.8164C91.8448 11.8164 91.8944 11.8323 91.944 11.8482L92.7208 12.0229L93.5968 12.2293C97.6296 13.1982 101.299 14.564 104.505 16.4064L105.183 16.8034L110.092 19.7734L107.364 24.697L98.208 41.2146L97.4643 42.5646C100.158 44.3593 102.505 46.567 104.456 49.1399L104.935 49.7911V49.8229L104.968 49.8546L105.993 51.3952L106.026 51.4429L106.059 51.4905C108.554 55.5723 109.711 60.194 109.711 65.1493C109.711 70.4858 108.422 75.4411 105.712 79.8246L105.679 79.8723L104.522 81.5876L104.489 81.6352L104.456 81.6829C101.662 85.447 98.0923 88.4487 93.8447 90.7199L93.9439 90.8311L90.8697 92.1811C85.713 94.4364 80.0936 95.5799 74.094 95.707H72.8875C65.9293 95.707 59.5 94.6429 53.6657 92.3717H53.6326L53.5996 92.3399L51.2857 91.3552H51.2526L51.2196 91.3235C45.6993 88.7505 41.4517 85.5423 38.5758 82.9852C38.4271 82.8423 38.2618 82.7152 38.113 82.5723C37.1214 81.667 37.1875 80.1423 38.1957 79.2529L38.5262 78.967C39.3526 78.2364 40.6418 78.284 41.4517 79.0305L41.964 79.4911L43.0053 80.3805C45.5505 82.5246 49.0379 84.9864 53.3847 87.0193L55.5829 87.9564C60.7065 89.9576 66.5078 90.9582 72.9205 90.9582H74.0114C79.0854 90.8311 83.7628 89.9099 88.0269 88.1787L88.8533 87.8293C93.6794 85.7487 97.5635 82.7946 100.423 78.9511L101.497 77.3787C103.695 73.8211 104.786 69.7552 104.786 65.1811L104.737 65.1652ZM71.1521 60.3052C73.1354 60.3052 74.656 60.877 75.7964 61.9093L75.8294 61.9411L75.8625 61.9729C76.9864 62.9576 77.5979 64.3393 77.5979 66.277C77.5979 67.5634 77.3169 68.6117 76.8046 69.4534C76.2922 70.3111 75.5485 70.9623 74.5898 71.4387L74.5403 71.4705H74.4907C73.5651 71.9152 72.4743 72.1376 71.1355 72.1376C69.7968 72.1376 68.7721 71.9152 67.863 71.5182L67.7473 71.4705L67.6482 71.407C66.8053 70.9464 66.0946 70.3111 65.5161 69.5011L65.45 69.4058L65.3839 69.2946C64.9211 68.4846 64.6732 67.484 64.6732 66.2611V65.8164C64.7393 64.7999 64.9872 63.9423 65.3839 63.2276L65.45 63.1164L65.5161 63.0211C66.1111 62.1793 66.8548 61.5282 67.7639 61.0517L68.1275 60.877C68.9869 60.4958 69.9786 60.3052 71.1355 60.3052H71.1521ZM71.1521 65.0699C70.6893 65.0699 70.4248 65.1334 70.2761 65.197L70.1604 65.2446C69.9951 65.324 69.8794 65.4193 69.7472 65.5623C69.7141 65.6576 69.648 65.8799 69.648 66.277C69.648 66.674 69.7141 66.8805 69.7472 66.9758C69.8298 67.0711 69.9125 67.1346 70.0282 67.214C70.2265 67.2934 70.5901 67.3729 71.1521 67.3729C71.7966 67.3729 72.1437 67.2776 72.3421 67.1982C72.4412 67.1505 72.4908 67.1029 72.5073 67.1029C72.5073 67.1029 72.5239 67.087 72.5404 67.0711C72.5404 67.0711 72.5735 67.0076 72.59 66.9123C72.623 66.8011 72.6561 66.5946 72.6561 66.277V65.9752C72.623 65.7211 72.5735 65.594 72.5569 65.5464C72.5569 65.5146 72.5404 65.5146 72.5239 65.4987L72.4743 65.467L72.3916 65.3876L72.2429 65.2764C72.2429 65.2764 72.1272 65.2129 72.0611 65.197C71.9123 65.1493 71.6314 65.0699 71.119 65.0699H71.1521Z" fill="white"/>
<path d="M44.1951 135.27L33.7165 102.902H45.0876L50.7897 121.294L56.8389 102.902H66.9869L72.689 121.532L78.7216 102.902H89.2003L78.7216 135.27H66.8878L61.5989 117.958L56.029 135.27H44.1951Z" fill="white"/>
<path d="M102.026 134.667C101.117 134.667 100.373 133.952 100.373 133.078V123.66H90.9359C90.0268 123.66 89.2831 122.945 89.2831 122.072V118.34C89.2831 117.466 90.0268 116.751 90.9359 116.751H100.373V107.682C100.373 106.809 101.117 106.094 102.026 106.094H106.274C107.183 106.094 107.926 106.809 107.926 107.682V116.751H117.364C118.273 116.751 119.017 117.466 119.017 118.34V122.072C119.017 122.945 118.273 123.66 117.364 123.66H107.926V133.078C107.926 133.952 107.183 134.667 106.274 134.667H102.026Z" fill="#FFC800"/>
<path d="M17.5527 102.948C20.6268 102.948 23.3539 103.458 25.7504 104.49C28.1799 105.522 30.1636 106.984 31.7337 108.906L25.0564 114.781C24.0814 113.654 23.0237 112.812 21.867 112.256C20.7432 111.668 19.4864 111.367 18.0982 111.367C16.9578 111.367 15.8994 111.542 14.9573 111.891C14.0485 112.241 13.255 112.749 12.6105 113.432C11.966 114.114 11.4533 114.925 11.1062 115.862C10.7593 116.799 10.5785 117.878 10.5784 119.085C10.5784 120.228 10.7593 121.293 11.1062 122.261C11.4533 123.198 11.966 124.009 12.6105 124.692C13.2549 125.359 14.0151 125.899 14.9073 126.28C15.8328 126.63 16.7924 126.804 17.9659 126.804C19.1393 126.804 20.2961 126.613 21.4199 126.232C21.5303 126.202 21.6405 126.142 21.7508 126.096V118.291H30.825V131.378C28.9409 132.649 26.7752 133.617 24.3623 134.3C21.933 134.983 19.586 135.318 17.3219 135.318C14.8097 135.318 12.4942 134.936 10.3621 134.173C8.26348 133.363 6.44594 132.251 4.87602 130.806C3.3391 129.361 2.14902 127.646 1.28962 125.677C0.430174 123.707 0 121.515 0 119.133C1.16569e-05 116.751 0.430186 114.559 1.28962 112.589C2.14905 110.62 3.35602 108.905 4.92605 107.46C6.06948 106.408 7.35339 105.533 8.79007 104.84L6.7015 110.658L4.13194 119.118L9.60677 112.102L16.418 102.979C16.7918 102.962 17.17 102.948 17.5527 102.948Z" fill="white"/>
<path d="M11.308 62.3242L25.8101 62.3187L8.26389 111.176L54.8031 48.8468L40.301 48.8578L57.8472 0L11.308 62.3242Z" fill="#FFC800"/>
</g>
<defs>
<clipPath id="clip0_2770_29916">
<rect width="119" height="135" fill="white"/>
</clipPath>
</defs>
</svg>
