<svg width="28" height="28" viewBox="0 0 28 28" fill="none" xmlns="http://www.w3.org/2000/svg">
<path d="M7.77786 17.1114V16.0744C7.77786 15.5243 7.99638 14.9968 8.38534 14.6078C8.77431 14.2188 9.30186 14.0003 9.85193 14.0003H18.1482C18.6983 14.0003 19.2259 14.2188 19.6148 14.6078C20.0038 14.9968 20.2223 15.5243 20.2223 16.0744V17.1114M14.0001 10.8892V14.0003M4.66675 19.1855C4.66675 18.6354 4.88527 18.1079 5.27423 17.7189C5.66319 17.33 6.19074 17.1114 6.74082 17.1114H8.8149C9.36498 17.1114 9.89252 17.33 10.2815 17.7189C10.6705 18.1079 10.889 18.6354 10.889 19.1855V21.2596C10.889 21.8097 10.6705 22.3372 10.2815 22.7262C9.89252 23.1151 9.36498 23.3337 8.8149 23.3337H6.74082C6.19074 23.3337 5.66319 23.1151 5.27423 22.7262C4.88527 22.3372 4.66675 21.8097 4.66675 21.2596V19.1855ZM17.1112 19.1855C17.1112 18.6354 17.3297 18.1079 17.7187 17.7189C18.1076 17.33 18.6352 17.1114 19.1853 17.1114H21.2593C21.8094 17.1114 22.337 17.33 22.7259 17.7189C23.1149 18.1079 23.3334 18.6354 23.3334 19.1855V21.2596C23.3334 21.8097 23.1149 22.3372 22.7259 22.7262C22.337 23.1151 21.8094 23.3337 21.2593 23.3337H19.1853C18.6352 23.3337 18.1076 23.1151 17.7187 22.7262C17.3297 22.3372 17.1112 21.8097 17.1112 21.2596V19.1855ZM10.889 6.74107C10.889 6.19099 11.1075 5.66344 11.4965 5.27447C11.8854 4.88551 12.413 4.66699 12.963 4.66699H15.0371C15.5872 4.66699 16.1147 4.88551 16.5037 5.27447C16.8927 5.66344 17.1112 6.19099 17.1112 6.74107V8.81514C17.1112 9.36522 16.8927 9.89277 16.5037 10.2817C16.1147 10.6707 15.5872 10.8892 15.0371 10.8892H12.963C12.413 10.8892 11.8854 10.6707 11.4965 10.2817C11.1075 9.89277 10.889 9.36522 10.889 8.81514V6.74107Z" stroke="#FFC800" stroke-width="1.2" stroke-linecap="round" stroke-linejoin="round"/>
</svg>
