<svg width="28" height="28" viewBox="0 0 28 28" fill="none" xmlns="http://www.w3.org/2000/svg">
<path d="M2.33337 19.5903L4.39935 17.6458L10.3542 23.8438L8.53129 25.6667" stroke="#D1D1D0" stroke-width="1.5" stroke-linecap="round"/>
<path d="M9.7467 22.8715L11.5696 21.2917C13.271 21.6157 17.087 22.0208 18.7398 21.0486C20.3925 20.0764 25.4238 15.7784 25.7884 15.4583C26.153 15.1382 25.6669 13.7569 24.087 14C22.5071 14.243 21.1703 15.8229 21.1703 15.8229L17.5245 16.5521" stroke="#D1D1D0" stroke-width="1.5"/>
<path d="M5.00708 18.1319L6.75613 16.4957C8.05296 15.2825 9.76241 14.6076 11.5382 14.6076H15.8231C15.8231 14.6076 17.1599 14.8507 17.4029 15.9444C17.646 17.0382 17.1599 17.4027 17.1599 17.4027L11.4481 17.8889" stroke="#D1D1D0" stroke-width="1.5" stroke-linecap="round"/>
<path d="M21.2916 14.1215C21.0486 13.7974 20.2222 13.1979 18.8611 13.3923C18.699 12.7847 17.9132 11.5937 16.0659 11.6909C14.2187 11.7882 13.6759 12.8657 13.6354 13.3923C12.9872 13.3518 11.4722 13.5382 10.5972 14.6076" stroke="#D1D1D0" stroke-width="1.5" stroke-linecap="round"/>
<path d="M20.6841 6.22224C19.5498 6.82988 17.1112 8.72571 16.4306 11.4479" stroke="#D1D1D0" stroke-width="1.5" stroke-linecap="round"/>
<path d="M18.6285 10.1111C19.5602 10.1516 21.9097 10.3542 23.2465 8.77431C24.5833 7.19445 24.5833 3.99421 24.3403 2.33333C23.5706 3.02199 22.5174 3.67014 19.7222 4.39931C16.9271 5.12847 16.6739 7.31597 17.16 9.625" stroke="#D1D1D0" stroke-width="1.5" stroke-linecap="round"/>
</svg>
