<svg width="28" height="28" viewBox="0 0 28 28" fill="none" xmlns="http://www.w3.org/2000/svg">
<path d="M23.4394 13.0457C23.7323 13.3386 23.7323 13.8135 23.4394 14.1064L18.6664 18.8793C18.3735 19.1722 17.8987 19.1722 17.6058 18.8793C17.3129 18.5864 17.3129 18.1116 17.6058 17.8187L21.8484 13.576L17.6058 9.33338C17.3129 9.04049 17.3129 8.56561 17.6058 8.27272C17.8987 7.97983 18.3735 7.97983 18.6664 8.27272L23.4394 13.0457ZM5.09088 14.326C4.67667 14.326 4.34088 13.9902 4.34088 13.576C4.34088 13.1618 4.67667 12.826 5.09088 12.826L5.09088 13.576L5.09088 14.326ZM22.9091 13.576L22.9091 14.326L5.09088 14.326L5.09088 13.576L5.09088 12.826L22.9091 12.826L22.9091 13.576Z" fill="#FFC800"/>
</svg>
