<svg width="28" height="28" viewBox="0 0 28 28" fill="none" xmlns="http://www.w3.org/2000/svg">
<path d="M19.2046 23.0152C18.9117 23.3081 18.4368 23.3081 18.1439 23.0152L13.371 18.2422C13.0781 17.9493 13.0781 17.4744 13.371 17.1815C13.6638 16.8886 14.1387 16.8886 14.4316 17.1815L18.6743 21.4242L22.9169 17.1815C23.2098 16.8886 23.6847 16.8886 23.9776 17.1815C24.2704 17.4744 24.2704 17.9493 23.9776 18.2422L19.2046 23.0152ZM17.9243 4.66666C17.9243 4.25244 18.26 3.91666 18.6743 3.91666C19.0885 3.91666 19.4243 4.25244 19.4243 4.66666L18.6743 4.66666L17.9243 4.66666ZM18.6743 22.4848L17.9243 22.4848L17.9243 4.66666L18.6743 4.66666L19.4243 4.66666L19.4243 22.4848L18.6743 22.4848Z" fill="#FFC800"/>
<path d="M7.24744 4.13632C7.54033 3.84343 8.01521 3.84343 8.3081 4.13632L13.0811 8.90929C13.374 9.20219 13.374 9.67706 13.0811 9.96995C12.7882 10.2628 12.3133 10.2628 12.0204 9.96995L7.77777 5.72731L3.53513 9.96995C3.24224 10.2628 2.76736 10.2628 2.47447 9.96995C2.18158 9.67706 2.18158 9.20219 2.47447 8.90929L7.24744 4.13632ZM8.52777 22.4848C8.52777 22.899 8.19198 23.2348 7.77777 23.2348C7.36356 23.2348 7.02777 22.899 7.02777 22.4848H7.77777H8.52777ZM7.77777 4.66665H8.52777V22.4848H7.77777H7.02777V4.66665H7.77777Z" fill="#FFC800"/>
</svg>
