<svg width="28" height="28" viewBox="0 0 28 28" fill="none" xmlns="http://www.w3.org/2000/svg">
<path d="M13.4697 4.13634C13.7626 3.84344 14.2374 3.84344 14.5303 4.13634L19.3033 8.90931C19.5962 9.2022 19.5962 9.67707 19.3033 9.96997C19.0104 10.2629 18.5355 10.2629 18.2426 9.96997L14 5.72733L9.75736 9.96997C9.46447 10.2629 8.98959 10.2629 8.6967 9.96997C8.40381 9.67707 8.40381 9.2022 8.6967 8.90931L13.4697 4.13634ZM14.75 22.4848C14.75 22.8991 14.4142 23.2348 14 23.2348C13.5858 23.2348 13.25 22.8991 13.25 22.4848H14H14.75ZM14 4.66667H14.75V22.4848H14H13.25V4.66667H14Z" fill="#FFC800"/>
</svg>
