<svg width="28" height="28" viewBox="0 0 28 28" fill="none" xmlns="http://www.w3.org/2000/svg">
<path d="M14.3223 15.4609C14.3223 15.1296 14.0537 14.8609 13.7223 14.8609C13.3909 14.8609 13.1223 15.1296 13.1223 15.4609L14.3223 15.4609ZM13.7223 24.3238L13.7223 24.9238L14.3223 24.9238L14.3223 24.3238L13.7223 24.3238ZM9.04004 23.7238C8.70867 23.7238 8.44004 23.9924 8.44004 24.3238C8.44004 24.6551 8.70867 24.9238 9.04004 24.9238L9.04004 23.7238ZM18.0701 24.9238C18.4014 24.9238 18.6701 24.6551 18.6701 24.3238C18.6701 23.9924 18.4014 23.7238 18.0701 23.7238L18.0701 24.9238ZM13.7223 15.4609L13.1223 15.4609L13.1223 24.3238L13.7223 24.3238L14.3223 24.3238L14.3223 15.4609L13.7223 15.4609ZM13.7223 24.3238L13.7223 23.7238L9.04004 23.7238L9.04004 24.3238L9.04004 24.9238L13.7223 24.9238L13.7223 24.3238ZM9.04004 24.3238L9.04004 24.9238L18.0701 24.9238L18.0701 24.3238L18.0701 23.7238L9.04004 23.7238L9.04004 24.3238Z" fill="#FFC800"/>
<path d="M11.1187 4.35254L16.8993 15.2939" stroke="#FFC800" stroke-width="1.2"/>
<path d="M3.32227 4.48828H20.1064C20.5602 4.48828 20.9814 4.70842 21.2422 5.07031L21.3438 5.2334L25.4805 13.0469C25.9741 13.9793 25.2982 15.1025 24.2432 15.1025H7.45801C6.93962 15.1024 6.46326 14.8156 6.2207 14.3574L2.08496 6.54395C1.59134 5.61154 2.26726 4.48828 3.32227 4.48828Z" stroke="#FFC800" stroke-width="1.2"/>
<path d="M3.52148 10.1094H24.176" stroke="#FFC800" stroke-width="1.2"/>
</svg>
