<svg width="28" height="28" viewBox="0 0 28 28" fill="none" xmlns="http://www.w3.org/2000/svg">
<path d="M14.4723 15.4609C14.4723 15.0467 14.1365 14.7109 13.7223 14.7109C13.3081 14.7109 12.9723 15.0467 12.9723 15.4609L14.4723 15.4609ZM13.7223 24.3238L13.7223 25.0738L14.4723 25.0738L14.4723 24.3238L13.7223 24.3238ZM9.04004 23.5738C8.62583 23.5738 8.29004 23.9095 8.29004 24.3238C8.29004 24.738 8.62583 25.0738 9.04004 25.0738L9.04004 23.5738ZM18.0701 25.0738C18.4843 25.0738 18.8201 24.738 18.8201 24.3238C18.8201 23.9095 18.4843 23.5738 18.0701 23.5738L18.0701 25.0738ZM13.7223 15.4609L12.9723 15.4609L12.9723 24.3238L13.7223 24.3238L14.4723 24.3238L14.4723 15.4609L13.7223 15.4609ZM13.7223 24.3238L13.7223 23.5738L9.04004 23.5738L9.04004 24.3238L9.04004 25.0738L13.7223 25.0738L13.7223 24.3238ZM9.04004 24.3238L9.04004 25.0738L18.0701 25.0738L18.0701 24.3238L18.0701 23.5738L9.04004 23.5738L9.04004 24.3238Z" fill="#D1D1D0"/>
<path d="M11.1187 4.35254L16.8993 15.2939" stroke="#D1D1D0" stroke-width="1.5"/>
<path d="M3.32227 4.63867H20.1064C20.5117 4.63867 20.8883 4.83485 21.1211 5.1582L21.2119 5.30371L25.3486 13.1172C25.7894 13.9497 25.1851 14.9521 24.2432 14.9521H7.45801C6.99518 14.952 6.57008 14.6962 6.35352 14.2871L2.2168 6.47363C1.7761 5.64114 2.38031 4.63867 3.32227 4.63867Z" stroke="#D1D1D0" stroke-width="1.5"/>
<path d="M3.52148 10.1094H24.176" stroke="#D1D1D0" stroke-width="1.5"/>
</svg>
