<svg width="28" height="28" viewBox="0 0 28 28" fill="none" xmlns="http://www.w3.org/2000/svg">
<mask id="path-1-outside-1_1167_7668" maskUnits="userSpaceOnUse" x="2.66675" y="1.11133" width="23" height="25" fill="black">
<rect fill="white" x="2.66675" y="1.11133" width="23" height="25"/>
<path d="M18.8422 6.18643C17.1618 5.12497 15.6919 4.27893 15.6919 4.27893C15.6919 4.27893 16.1128 3.21747 15.9023 3.21747C15.4815 3.21747 14.5376 3.53591 14.5376 3.53591L13.2781 3.11133C13.2781 3.11133 12.8573 3.11133 13.2781 3.7482C13.699 4.38508 13.4886 4.59737 13.4886 4.59737C13.4886 4.59737 5.7149 10.3292 4.98147 13.6104C4.98147 13.6104 4.04381 16.2016 5.40543 18.0279C6.76706 19.8574 11.8082 23.6724 12.7551 23.9908C12.7551 23.9908 11.8329 25.2926 13.2688 24.7619C13.47 24.687 13.6557 24.5684 13.8073 24.4154C13.8073 24.4154 14.4386 24.84 15.0668 24.84C15.4877 24.84 15.2772 24.4154 15.2772 24.4154L14.8564 23.5693L18.2171 20.6004L22.2092 16.5731C22.2092 16.5731 23.6791 15.3025 23.6791 12.7581C23.6791 10.2137 20.5288 7.24789 18.8484 6.18955M20.8382 14.3472C20.2069 19.0113 13.0646 22.4017 13.0646 22.4017C7.39218 19.2236 7.39217 14.7717 7.39217 14.7717C7.18174 9.26153 15.5867 5.44653 15.5867 5.44653C21.68 8.62466 20.8382 14.3472 20.8382 14.3472Z"/>
</mask>
<path d="M15.6919 4.27893L14.5764 3.83663L14.1939 4.8013L15.0933 5.31896L15.6919 4.27893ZM14.5376 3.53591L14.1543 4.67304L14.5378 4.80231L14.9212 4.67294L14.5376 3.53591ZM13.2781 3.11133L13.6615 1.9742L13.4749 1.91133H13.2781V3.11133ZM13.4886 4.59737L14.2007 5.5632L14.2754 5.5081L14.3408 5.44216L13.4886 4.59737ZM4.98147 13.6104L6.10987 14.0187L6.13589 13.9468L6.15257 13.8722L4.98147 13.6104ZM5.40543 18.0279L6.36807 17.3114L6.36748 17.3107L5.40543 18.0279ZM12.7551 23.9908L13.7343 24.6845L14.6671 23.3677L13.1376 22.8534L12.7551 23.9908ZM13.2688 24.7619L13.6849 25.8875L13.6877 25.8864L13.2688 24.7619ZM13.8073 24.4154L14.477 23.4196L13.6536 22.8659L12.955 23.5706L13.8073 24.4154ZM15.2772 24.4154L16.3524 23.8825L16.3516 23.8809L15.2772 24.4154ZM14.8564 23.5693L14.0619 22.67L13.3719 23.2795L13.782 24.1038L14.8564 23.5693ZM18.2171 20.6004L19.0116 21.4997L19.0414 21.4734L19.0694 21.4452L18.2171 20.6004ZM22.2092 16.5731L21.4244 15.6653L21.3894 15.6955L21.3569 15.7283L22.2092 16.5731ZM20.8382 14.3472L19.6509 14.1725L19.6491 14.1862L20.8382 14.3472ZM13.0646 22.4017L12.478 23.4486L13.019 23.7517L13.5792 23.4858L13.0646 22.4017ZM7.39217 14.7717L8.59217 14.7717L8.59217 14.7488L8.5913 14.7259L7.39217 14.7717ZM15.5867 5.44653L16.1416 4.38256L15.6232 4.11214L15.0907 4.35383L15.5867 5.44653ZM18.8422 6.18643L19.4831 5.17189C18.6317 4.63408 17.8348 4.15161 17.2513 3.80382C16.9592 3.62978 16.72 3.48912 16.5534 3.39172C16.4701 3.34302 16.4049 3.30511 16.3603 3.27923C16.3379 3.26629 16.3208 3.25636 16.309 3.24958C16.3032 3.2462 16.2987 3.2436 16.2956 3.24181C16.294 3.24092 16.2928 3.24023 16.292 3.23974C16.2916 3.2395 16.2912 3.2393 16.291 3.23916C16.2909 3.23909 16.2908 3.23904 16.2907 3.23899C16.2906 3.23897 16.2906 3.23895 16.2906 3.23893C16.2905 3.23891 16.2905 3.2389 15.6919 4.27893C15.0933 5.31896 15.0933 5.31895 15.0933 5.31895C15.0933 5.31895 15.0933 5.31894 15.0933 5.31895C15.0933 5.31895 15.0933 5.31897 15.0934 5.31901C15.0935 5.31907 15.0937 5.31919 15.094 5.31935C15.0946 5.31969 15.0955 5.32023 15.0968 5.32097C15.0993 5.32245 15.1033 5.32473 15.1086 5.3278C15.1192 5.33394 15.1353 5.34322 15.1564 5.35548C15.1988 5.38002 15.2615 5.4165 15.3423 5.4637C15.5038 5.55811 15.7371 5.6953 16.0226 5.86545C16.5941 6.20605 17.3724 6.67732 18.2014 7.20097L18.8422 6.18643ZM15.6919 4.27893C16.8074 4.72123 16.8075 4.72113 16.8075 4.72103C16.8075 4.72099 16.8076 4.72088 16.8076 4.72081C16.8077 4.72065 16.8077 4.72047 16.8078 4.72028C16.808 4.7199 16.8081 4.71945 16.8083 4.71894C16.8087 4.71792 16.8092 4.71663 16.8098 4.7151C16.8111 4.71202 16.8127 4.70794 16.8146 4.70292C16.8185 4.69287 16.8239 4.67901 16.8305 4.66187C16.8435 4.62768 16.8615 4.57993 16.8822 4.52299C16.9227 4.41145 16.9775 4.25434 17.0263 4.09025C17.0695 3.94496 17.1306 3.72102 17.1524 3.50169C17.1611 3.41368 17.1812 3.18088 17.1039 2.92104C17.0619 2.77957 16.9669 2.54782 16.7457 2.34501C16.4991 2.11882 16.1922 2.01747 15.9023 2.01747V3.21747V4.41747C15.7813 4.41747 15.6432 4.39803 15.5002 4.34462C15.3559 4.29068 15.2289 4.21041 15.1236 4.11378C14.9194 3.92652 14.8369 3.71757 14.8035 3.60513C14.7689 3.48878 14.7631 3.39667 14.7617 3.35506C14.7602 3.30833 14.763 3.2762 14.7641 3.26496C14.7661 3.24425 14.7673 3.24748 14.7591 3.28292C14.7518 3.31433 14.7408 3.35581 14.7258 3.40616C14.6957 3.50743 14.6584 3.61568 14.6266 3.70317C14.6111 3.74573 14.5978 3.78091 14.5887 3.80477C14.5842 3.81666 14.5807 3.8256 14.5786 3.8311C14.5775 3.83385 14.5768 3.83573 14.5764 3.83667C14.5762 3.83715 14.5761 3.83738 14.5761 3.83738C14.5761 3.83738 14.5761 3.83732 14.5762 3.83719C14.5762 3.83713 14.5762 3.83705 14.5763 3.83696C14.5763 3.83691 14.5763 3.83683 14.5763 3.83681C14.5764 3.83672 14.5764 3.83663 15.6919 4.27893ZM15.9023 3.21747V2.01747C15.5045 2.01747 15.0104 2.14613 14.743 2.2199C14.5816 2.26443 14.4365 2.3085 14.3321 2.34128C14.2796 2.35777 14.2366 2.37166 14.2061 2.38165C14.1908 2.38665 14.1786 2.39069 14.1698 2.39361C14.1654 2.39507 14.1618 2.39625 14.1592 2.39714C14.1579 2.39758 14.1568 2.39795 14.1559 2.39824C14.1555 2.39838 14.1551 2.39851 14.1548 2.39862C14.1546 2.39867 14.1545 2.39872 14.1544 2.39876C14.1543 2.39878 14.1542 2.39881 14.1542 2.39882C14.1541 2.39885 14.154 2.39888 14.5376 3.53591C14.9212 4.67294 14.9212 4.67297 14.9211 4.67299C14.9211 4.673 14.921 4.67302 14.921 4.67303C14.9209 4.67305 14.9208 4.67307 14.9208 4.67309C14.9207 4.67312 14.9207 4.67313 14.9207 4.67312C14.9207 4.67311 14.921 4.67302 14.9215 4.67286C14.9224 4.67254 14.9243 4.67193 14.9269 4.67106C14.9321 4.66932 14.9406 4.66652 14.9519 4.66281C14.9746 4.65538 15.0087 4.64439 15.0512 4.63103C15.137 4.6041 15.2541 4.56856 15.3813 4.53348C15.5103 4.49788 15.6387 4.4658 15.7493 4.44343C15.8757 4.41789 15.9194 4.41747 15.9023 4.41747V3.21747ZM14.5376 3.53591L14.921 2.39878L13.6615 1.9742L13.2781 3.11133L12.8948 4.24846L14.1543 4.67304L14.5376 3.53591ZM13.2781 3.11133C13.2781 1.91133 13.2772 1.91133 13.2763 1.91133C13.276 1.91133 13.2751 1.91133 13.2745 1.91133C13.2733 1.91134 13.2721 1.91134 13.2709 1.91135C13.2684 1.91136 13.2659 1.91139 13.2633 1.91142C13.2581 1.91148 13.2528 1.91158 13.2472 1.91172C13.236 1.91199 13.2239 1.91244 13.211 1.91311C13.1852 1.91446 13.1553 1.91675 13.1221 1.92062C13.0575 1.92814 12.9705 1.94272 12.8713 1.97273C12.6858 2.02888 12.3553 2.17204 12.1191 2.52935C11.867 2.91093 11.8598 3.32546 11.9287 3.63815C11.9927 3.92903 12.131 4.1889 12.277 4.40979L13.2781 3.7482L14.2793 3.08661C14.2148 2.98907 14.2479 3.01011 14.2725 3.12187C14.3019 3.25544 14.321 3.55056 14.1214 3.85253C13.9379 4.13022 13.6863 4.23358 13.5665 4.26983C13.5003 4.28989 13.4428 4.29949 13.3996 4.30452C13.3771 4.30715 13.3558 4.30882 13.336 4.30985C13.3261 4.31037 13.3163 4.31074 13.3067 4.31098C13.3019 4.3111 13.2971 4.31119 13.2923 4.31124C13.29 4.31127 13.2876 4.31129 13.2852 4.31131C13.284 4.31131 13.2829 4.31132 13.2817 4.31132C13.2811 4.31132 13.2802 4.31133 13.2799 4.31133C13.279 4.31133 13.2781 4.31133 13.2781 3.11133ZM13.2781 3.7482L12.277 4.40979C12.4119 4.61392 12.3412 4.59623 12.3412 4.41161C12.3412 4.31424 12.3615 4.19565 12.4167 4.07044C12.4434 4.00993 12.4761 3.95263 12.5136 3.89904C12.5322 3.87236 12.5519 3.84683 12.5725 3.82242C12.5827 3.81022 12.5932 3.79831 12.6038 3.78667C12.6092 3.78085 12.6145 3.7751 12.6199 3.76942C12.6226 3.76658 12.6254 3.76375 12.6281 3.76094C12.6295 3.75954 12.6308 3.75814 12.6322 3.75675C12.6329 3.75605 12.6339 3.755 12.6342 3.75466C12.6353 3.75361 12.6363 3.75257 13.4886 4.59737C14.3408 5.44216 14.3418 5.44112 14.3429 5.44007C14.3432 5.43972 14.3442 5.43867 14.3449 5.43797C14.3463 5.43656 14.3477 5.43514 14.3491 5.43371C14.3519 5.43085 14.3547 5.42795 14.3575 5.42501C14.3631 5.41911 14.3688 5.41305 14.3745 5.40681C14.3859 5.39433 14.3975 5.38114 14.4092 5.36723C14.4326 5.3394 14.4564 5.30869 14.48 5.27497C14.5274 5.20727 14.5732 5.12842 14.613 5.03805C14.6945 4.85313 14.7412 4.64167 14.7412 4.41162C14.7412 3.96163 14.5652 3.51936 14.2793 3.08661L13.2781 3.7482ZM13.4886 4.59737C12.7764 3.63153 12.7763 3.63163 12.7761 3.63176C12.776 3.63183 12.7758 3.63197 12.7756 3.63211C12.7752 3.63239 12.7747 3.63276 12.7741 3.63322C12.7729 3.63413 12.7712 3.63539 12.769 3.63699C12.7647 3.64019 12.7585 3.64477 12.7505 3.65069C12.7346 3.66254 12.7115 3.67976 12.6817 3.70211C12.622 3.7468 12.5354 3.81201 12.4256 3.89576C12.2059 4.06319 11.8929 4.30496 11.5156 4.605C10.7622 5.20411 9.74664 6.04018 8.70451 6.984C7.66636 7.92422 6.5804 8.99056 5.69807 10.0499C4.84739 11.0712 4.06016 12.2311 3.81037 13.3486L4.98147 13.6104L6.15257 13.8722C6.2695 13.349 6.72901 12.5621 7.54216 11.5859C8.32367 10.6476 9.31864 9.66578 10.3156 8.76289C11.3085 7.8636 12.2823 7.06163 13.0093 6.48348C13.3723 6.19489 13.6723 5.96322 13.8806 5.80438C13.9848 5.72498 14.0659 5.66385 14.1205 5.62297C14.1478 5.60254 14.1684 5.58717 14.1819 5.57713C14.1887 5.5721 14.1937 5.56841 14.1968 5.56608C14.1984 5.56491 14.1995 5.56409 14.2002 5.56361C14.2005 5.56337 14.2007 5.56321 14.2008 5.56315C14.2008 5.56311 14.2008 5.56313 14.2008 5.56311C14.2008 5.56314 14.2007 5.5632 13.4886 4.59737ZM4.98147 13.6104C3.85308 13.2021 3.85294 13.2024 3.85279 13.2028C3.85274 13.203 3.85259 13.2034 3.85249 13.2037C3.85227 13.2043 3.85205 13.2049 3.85181 13.2056C3.85133 13.2069 3.85079 13.2084 3.85019 13.2101C3.84901 13.2134 3.8476 13.2174 3.84599 13.222C3.84276 13.2313 3.83871 13.243 3.83392 13.2573C3.82436 13.2857 3.81186 13.324 3.79726 13.3712C3.76811 13.4656 3.73035 13.5968 3.69083 13.7577C3.6123 14.0777 3.52417 14.5265 3.48605 15.0466C3.4117 16.061 3.51775 17.5036 4.44338 18.7452L5.40543 18.0279L6.36748 17.3107C5.93149 16.7259 5.82556 15.9597 5.87963 15.222C5.90573 14.866 5.96691 14.5528 6.02165 14.3298C6.04876 14.2194 6.07361 14.1338 6.09042 14.0793C6.09881 14.0522 6.10512 14.033 6.10863 14.0226C6.11038 14.0174 6.11142 14.0144 6.11166 14.0137C6.11178 14.0134 6.1117 14.0136 6.1114 14.0144C6.11126 14.0148 6.11105 14.0154 6.1108 14.0161C6.11067 14.0165 6.11053 14.0169 6.11037 14.0173C6.1103 14.0175 6.11017 14.0179 6.11013 14.018C6.11 14.0183 6.10987 14.0187 4.98147 13.6104ZM5.40543 18.0279L4.4428 18.7444C5.23089 19.8033 6.9532 21.3034 8.49242 22.518C9.28327 23.1421 10.0662 23.7222 10.719 24.1709C11.0447 24.3948 11.3469 24.5921 11.6069 24.7478C11.8411 24.888 12.1203 25.0434 12.3726 25.1282L12.7551 23.9908L13.1376 22.8534C13.1532 22.8586 13.0678 22.8251 12.8397 22.6886C12.6374 22.5675 12.3798 22.4003 12.0785 22.1931C11.4772 21.7798 10.7372 21.2321 9.97916 20.634C8.42067 19.4041 6.9416 18.082 6.36807 17.3114L5.40543 18.0279ZM12.7551 23.9908C11.7759 23.2972 11.7757 23.2974 11.7755 23.2977C11.7755 23.2978 11.7753 23.2981 11.7751 23.2983C11.7749 23.2986 11.7746 23.2991 11.7743 23.2995C11.7737 23.3004 11.773 23.3013 11.7723 23.3023C11.7708 23.3044 11.7691 23.3068 11.7672 23.3096C11.7634 23.3151 11.7587 23.3219 11.7532 23.3299C11.7423 23.346 11.728 23.3672 11.7115 23.3928C11.6788 23.4432 11.6347 23.5139 11.5877 23.5974C11.5098 23.7358 11.3601 24.0189 11.2962 24.3434C11.2642 24.5057 11.2293 24.794 11.3321 25.1161C11.4539 25.4977 11.7351 25.8145 12.127 25.9754C12.4593 26.1118 12.7802 26.0995 12.9955 26.0703C13.2255 26.0392 13.4582 25.9713 13.6849 25.8875L13.2688 24.7619L12.8528 23.6363C12.7205 23.6852 12.6679 23.6928 12.6735 23.692C12.6786 23.6913 12.7139 23.6867 12.7713 23.6907C12.8287 23.6947 12.9245 23.7084 13.0386 23.7553C13.1576 23.8041 13.286 23.8851 13.3986 24.008C13.5107 24.1305 13.5797 24.2648 13.6185 24.3862C13.6558 24.5031 13.6635 24.6023 13.6636 24.6676C13.6637 24.7332 13.656 24.7816 13.6509 24.8074C13.6416 24.8547 13.632 24.8708 13.6414 24.8488C13.6488 24.8317 13.6615 24.8059 13.6792 24.7745C13.6963 24.7442 13.713 24.7173 13.7251 24.6986C13.731 24.6896 13.7352 24.6834 13.737 24.6807C13.738 24.6793 13.7383 24.6789 13.7378 24.6795C13.7376 24.6798 13.7373 24.6803 13.7367 24.6811C13.7364 24.6816 13.736 24.682 13.7357 24.6826C13.7355 24.6829 13.7353 24.6832 13.735 24.6835C13.7349 24.6836 13.7348 24.6839 13.7347 24.6839C13.7345 24.6842 13.7343 24.6845 12.7551 23.9908ZM13.2688 24.7619L13.6877 25.8864C14.0485 25.752 14.3829 25.5392 14.6595 25.2602L13.8073 24.4154L12.955 23.5706C12.9284 23.5975 12.8915 23.6219 12.85 23.6374L13.2688 24.7619ZM13.8073 24.4154C13.1376 25.4111 13.1378 25.4113 13.1381 25.4114C13.1381 25.4115 13.1384 25.4117 13.1385 25.4118C13.1389 25.412 13.1392 25.4122 13.1395 25.4124C13.1402 25.4129 13.1409 25.4134 13.1417 25.4139C13.1432 25.4149 13.1449 25.416 13.1468 25.4173C13.1505 25.4197 13.1549 25.4226 13.1599 25.4258C13.1699 25.4324 13.1825 25.4405 13.1975 25.4499C13.2275 25.4687 13.2675 25.4931 13.3161 25.5212C13.4126 25.5768 13.5475 25.6495 13.7099 25.7224C14.0129 25.8584 14.5079 26.04 15.0668 26.04V24.84V23.64C14.9975 23.64 14.8627 23.6092 14.6931 23.533C14.6191 23.4998 14.5569 23.4663 14.5154 23.4423C14.495 23.4305 14.4808 23.4218 14.4738 23.4174C14.4703 23.4152 14.4687 23.4142 14.4692 23.4145C14.4694 23.4146 14.4702 23.4151 14.4715 23.416C14.4721 23.4164 14.4729 23.4169 14.4738 23.4175C14.4743 23.4178 14.4748 23.4182 14.4753 23.4185C14.4756 23.4187 14.4758 23.4189 14.4761 23.4191C14.4763 23.4191 14.4765 23.4193 14.4765 23.4193C14.4768 23.4195 14.477 23.4196 13.8073 24.4154ZM15.0668 24.84V26.04C15.3597 26.04 15.786 25.9649 16.1295 25.6184C16.471 25.2738 16.5298 24.8631 16.5298 24.6277C16.5298 24.3947 16.4758 24.2046 16.443 24.1052C16.4242 24.0484 16.4053 24.0006 16.3899 23.9644C16.3821 23.9461 16.3749 23.9299 16.3686 23.9163C16.3655 23.9095 16.3625 23.9033 16.3598 23.8976C16.3585 23.8948 16.3572 23.8921 16.3559 23.8896C16.3553 23.8884 16.3547 23.8871 16.3541 23.8859C16.3538 23.8854 16.3535 23.8848 16.3533 23.8842C16.3531 23.8839 16.3529 23.8835 16.3528 23.8833C16.3526 23.8829 16.3524 23.8825 15.2772 24.4154C14.2021 24.9483 14.2018 24.9479 14.2016 24.9474C14.2016 24.9473 14.2014 24.9469 14.2012 24.9466C14.201 24.9461 14.2007 24.9455 14.2004 24.945C14.1999 24.9439 14.1994 24.9428 14.1988 24.9418C14.1978 24.9397 14.1968 24.9376 14.1958 24.9356C14.1939 24.9315 14.1921 24.9277 14.1904 24.924C14.187 24.9166 14.1839 24.9096 14.181 24.9028C14.1755 24.8899 14.1697 24.8752 14.1641 24.8582C14.1576 24.8384 14.1298 24.7545 14.1298 24.6277C14.1298 24.4984 14.1623 24.1938 14.425 23.9288C14.6896 23.6619 14.9844 23.64 15.0668 23.64V24.84ZM15.2772 24.4154L16.3516 23.8809L15.9308 23.0349L14.8564 23.5693L13.782 24.1038L14.2028 24.9499L15.2772 24.4154ZM14.8564 23.5693L15.6508 24.4687L19.0116 21.4997L18.2171 20.6004L17.4226 19.7011L14.0619 22.67L14.8564 23.5693ZM18.2171 20.6004L19.0694 21.4452L23.0614 17.4179L22.2092 16.5731L21.3569 15.7283L17.3649 19.7556L18.2171 20.6004ZM22.2092 16.5731C22.9939 17.4809 22.9943 17.4806 22.9948 17.4802C22.995 17.48 22.9954 17.4796 22.9957 17.4794C22.9964 17.4788 22.997 17.4782 22.9977 17.4776C22.999 17.4765 23.0005 17.4752 23.002 17.4738C23.0051 17.4711 23.0085 17.4681 23.0123 17.4647C23.0199 17.458 23.0289 17.4499 23.0391 17.4404C23.0597 17.4215 23.0855 17.397 23.1157 17.3671C23.1762 17.3074 23.2548 17.2254 23.3453 17.1211C23.526 16.9128 23.7561 16.6128 23.983 16.2203C24.4395 15.4306 24.8791 14.2718 24.8791 12.7581H23.6791H22.4791C22.4791 13.7887 22.1837 14.5375 21.9052 15.0192C21.7647 15.2623 21.6273 15.4391 21.5323 15.5485C21.485 15.6031 21.4488 15.6402 21.4289 15.6599C21.419 15.6697 21.4132 15.6751 21.4122 15.676C21.4117 15.6765 21.4124 15.6758 21.4144 15.674C21.4154 15.6731 21.4167 15.6719 21.4184 15.6705C21.4192 15.6697 21.4202 15.6689 21.4212 15.6681C21.4217 15.6676 21.4222 15.6672 21.4227 15.6667C21.423 15.6665 21.4234 15.6661 21.4235 15.666C21.424 15.6656 21.4244 15.6653 22.2092 16.5731ZM23.6791 12.7581H24.8791C24.8791 11.0463 23.855 9.38985 22.8141 8.14631C21.7387 6.8617 20.4371 5.77199 19.4879 5.17416L18.8484 6.18955L18.2089 7.20494C18.9401 7.66545 20.0538 8.58783 20.9737 9.68681C21.928 10.8269 22.4791 11.9255 22.4791 12.7581H23.6791ZM20.8382 14.3472L19.6491 14.1862C19.4022 16.01 17.8148 17.7669 15.9842 19.1715C15.1053 19.8459 14.2399 20.3864 13.5922 20.7588C13.2695 20.9444 13.0036 21.0867 12.8207 21.1814C12.7293 21.2288 12.6589 21.2642 12.6126 21.2871C12.5895 21.2985 12.5724 21.3068 12.5618 21.312C12.5566 21.3145 12.5529 21.3163 12.5509 21.3172C12.5499 21.3177 12.5493 21.318 12.5492 21.3181C12.5491 21.3181 12.5491 21.3181 12.5493 21.318C12.5493 21.318 12.5495 21.3179 12.5496 21.3179C12.5498 21.3178 12.55 21.3177 13.0646 22.4017C13.5792 23.4858 13.5795 23.4857 13.5798 23.4855C13.5799 23.4854 13.5803 23.4853 13.5806 23.4851C13.5811 23.4849 13.5818 23.4845 13.5826 23.4842C13.5842 23.4834 13.5862 23.4825 13.5886 23.4813C13.5935 23.4789 13.6001 23.4758 13.6084 23.4718C13.6248 23.4638 13.648 23.4525 13.6773 23.438C13.736 23.4089 13.8196 23.3669 13.9247 23.3124C14.1349 23.2036 14.4319 23.0445 14.7887 22.8394C15.5 22.4303 16.4596 21.8318 17.4452 21.0755C19.3436 19.6189 21.643 17.3485 22.0274 14.5081L20.8382 14.3472ZM13.0646 22.4017L13.6511 21.3549C11.0395 19.8916 9.79307 18.1749 9.18746 16.885C8.8812 16.2326 8.73218 15.6748 8.65976 15.2933C8.62357 15.1025 8.60664 14.9565 8.59878 14.8657C8.59485 14.8203 8.59319 14.7889 8.59252 14.7728C8.59219 14.7647 8.5921 14.7605 8.5921 14.7602C8.59209 14.7601 8.59211 14.761 8.59213 14.7629C8.59214 14.7639 8.59215 14.7651 8.59216 14.7665C8.59216 14.7673 8.59217 14.7681 8.59217 14.7689C8.59217 14.7694 8.59217 14.7701 8.59217 14.7703C8.59217 14.771 8.59217 14.7717 7.39217 14.7717C6.19217 14.7717 6.19217 14.7725 6.19217 14.7733C6.19217 14.7736 6.19217 14.7744 6.19218 14.7749C6.19218 14.7761 6.19218 14.7773 6.19219 14.7786C6.1922 14.7811 6.19222 14.7839 6.19225 14.787C6.19232 14.7933 6.19242 14.8006 6.19259 14.809C6.19293 14.8258 6.19354 14.8469 6.19459 14.8723C6.19669 14.9229 6.20057 14.9902 6.20772 15.0728C6.22202 15.2378 6.24941 15.4644 6.30185 15.7407C6.40669 16.2932 6.6122 17.047 7.01499 17.9049C7.82749 19.6355 9.41724 21.7337 12.478 23.4486L13.0646 22.4017ZM7.39217 14.7717L8.5913 14.7259C8.50981 12.5921 10.1237 10.592 12.1553 8.98369C13.1303 8.21186 14.1188 7.59663 14.8674 7.17326C15.2403 6.96241 15.55 6.80119 15.764 6.69384C15.8709 6.6402 15.9537 6.60014 16.0082 6.57417C16.0355 6.56119 16.0557 6.55175 16.0683 6.5459C16.0746 6.54298 16.0789 6.54095 16.0814 6.53984C16.0826 6.53928 16.0833 6.53896 16.0835 6.53885C16.0836 6.5388 16.0836 6.53881 16.0835 6.53887C16.0834 6.53891 16.0832 6.539 16.0832 6.53901C16.0829 6.53912 16.0827 6.53924 15.5867 5.44653C15.0907 4.35383 15.0904 4.35398 15.09 4.35414C15.0899 4.35421 15.0895 4.35439 15.0892 4.35454C15.0885 4.35484 15.0877 4.35519 15.0868 4.35561C15.085 4.35643 15.0827 4.3575 15.0798 4.3588C15.0742 4.36139 15.0665 4.36493 15.0569 4.36939C15.0377 4.37832 15.0107 4.39096 14.9765 4.40727C14.908 4.43988 14.8104 4.48716 14.6879 4.54861C14.4431 4.67141 14.0978 4.85128 13.686 5.08418C12.8653 5.54833 11.7656 6.23123 10.6657 7.10192C8.54749 8.77871 6.0641 11.4411 6.19305 14.8175L7.39217 14.7717ZM15.5867 5.44653L15.0318 6.5105C17.7586 7.93279 18.8792 9.87876 19.3486 11.4351C19.5875 12.2273 19.661 12.9335 19.675 13.4367C19.682 13.6874 19.6741 13.8847 19.6653 14.0133C19.6609 14.0774 19.6563 14.1241 19.6534 14.1514C19.6519 14.165 19.6508 14.1738 19.6503 14.1774C19.6501 14.1792 19.65 14.1797 19.6501 14.1789C19.6502 14.1785 19.6503 14.1778 19.6504 14.1767C19.6505 14.1762 19.6506 14.1756 19.6507 14.1749C19.6507 14.1745 19.6508 14.1739 19.6508 14.1738C19.6509 14.1732 19.651 14.1725 20.8382 14.3472C22.0255 14.5218 22.0256 14.5211 22.0257 14.5204C22.0257 14.5202 22.0258 14.5194 22.0259 14.5189C22.026 14.5179 22.0262 14.5167 22.0264 14.5155C22.0267 14.5131 22.0271 14.5102 22.0276 14.5071C22.0284 14.5008 22.0295 14.493 22.0306 14.4839C22.033 14.4657 22.0359 14.4419 22.0391 14.4128C22.0454 14.3547 22.053 14.2754 22.0597 14.1769C22.0732 13.98 22.0834 13.7055 22.0741 13.37C22.0555 12.7009 21.9587 11.7778 21.6463 10.7422C21.0132 8.64274 19.508 6.1384 16.1416 4.38256L15.5867 5.44653Z" fill="#D1D1D0" mask="url(#path-1-outside-1_1167_7668)"/>
<path d="M14.3242 12.084C15.3221 12.084 16.1406 12.9011 16.1406 13.9229C16.1405 14.9419 15.3215 15.7607 14.3242 15.7607C13.3264 15.7607 12.507 14.9445 12.5068 13.9229C12.5068 12.9011 13.3263 12.084 14.3242 12.084Z" stroke="#D1D1D0" stroke-width="1.2"/>
</svg>
