<svg width="28" height="28" viewBox="0 0 28 28" fill="none" xmlns="http://www.w3.org/2000/svg">
<g clip-path="url(#clip0_3154_10582)">
<path d="M6.27744 19.9455L7.10744 22.4182C7.44503 23.4239 8.16831 24.2544 9.11817 24.7268L10.7531 25.54C11.2001 25.7623 11.7427 25.5802 11.965 25.1332V25.1332C12.1569 24.7474 12.0498 24.2797 11.7091 24.0159L10.6625 23.2054C10.3182 22.9387 10.1861 22.4799 10.3357 22.071L10.5404 21.512C10.7449 20.9532 10.3821 20.348 9.79279 20.2651V20.2651C9.44218 20.2157 9.14953 19.9725 9.03686 19.6369L8.72716 18.7142" stroke="#FFC800" stroke-width="1.2"/>
<path d="M18.614 1.77283C19.0432 1.52393 19.6088 1.72619 19.772 2.21231L24.7771 17.1232C24.9511 17.6416 24.5654 18.1782 24.0187 18.1782L11.3513 18.1748C11.0077 18.1747 10.7026 17.9546 10.5933 17.6289L8.15567 10.3669C8.04631 10.0411 8.1568 9.68155 8.43081 9.47414L18.5307 1.82859L18.614 1.77283Z" stroke="#FFC800" stroke-width="1.2"/>
<path d="M8.58568 9.76371L3.12999 11.595C2.08283 11.9465 1.51889 13.0803 1.87038 14.1275L3.312 18.4223C3.66349 19.4694 4.79732 20.0334 5.84447 19.6819L11.3002 17.8506" stroke="#FFC800" stroke-width="1.2"/>
<path d="M5.28777 15.9318C4.97362 16.0372 4.80444 16.3774 4.90989 16.6915C5.01534 17.0057 5.35548 17.1748 5.66963 17.0694L5.4787 16.5006L5.28777 15.9318ZM5.4787 16.5006L5.66963 17.0694L10.4942 15.4499L10.3033 14.8811L10.1124 14.3123L5.28777 15.9318L5.4787 16.5006Z" fill="#FFC800"/>
<path d="M23.6475 12.0304C24.7056 11.6752 25.2034 10.3152 24.7595 8.99259C24.3155 7.67002 23.0979 6.88577 22.0399 7.24092" stroke="#FFC800" stroke-width="1.2"/>
<path d="M16.7056 9.79166H19.2379L16.7388 14.6383V11.986H14.2066L16.7056 7.13834V9.79166Z" stroke="#FFC800" stroke-width="1.2" stroke-linecap="round"/>
</g>
<defs>
<clipPath id="clip0_3154_10582">
<rect width="28" height="28" fill="white"/>
</clipPath>
</defs>
</svg>
