<svg width="28" height="28" viewBox="0 0 28 28" fill="none" xmlns="http://www.w3.org/2000/svg">
<path d="M4.66675 19.2666H11.6667C12.1944 19.2667 12.6218 19.695 12.6218 20.2227V23.334C12.6216 23.8615 12.1943 24.289 11.6667 24.2891H4.66675C4.13915 24.2891 3.71093 23.8615 3.71069 23.334V20.2227C3.71069 19.6949 4.13901 19.2666 4.66675 19.2666ZM16.3337 11.4893H23.3337C23.8612 11.4895 24.2886 11.9169 24.2888 12.4443V23.334C24.2886 23.8614 23.8611 24.2888 23.3337 24.2891H16.3337C15.8061 24.2891 15.3779 23.8615 15.3777 23.334V12.4443C15.3779 11.9167 15.8061 11.4893 16.3337 11.4893ZM4.66675 3.71094H11.6667C12.1944 3.711 12.6218 4.13929 12.6218 4.66699V15.5557C12.6218 16.0834 12.1944 16.5117 11.6667 16.5117H4.66675C4.13901 16.5117 3.71069 16.0834 3.71069 15.5557V4.66699C3.71069 4.13925 4.13901 3.71094 4.66675 3.71094ZM16.3337 3.71094H23.3337C23.8613 3.71117 24.2888 4.1394 24.2888 4.66699V7.77832C24.2886 8.30576 23.8612 8.73316 23.3337 8.7334H16.3337C15.8061 8.7334 15.3779 8.30591 15.3777 7.77832V4.66699C15.3777 4.13925 15.806 3.71094 16.3337 3.71094Z" stroke="#FFC800" stroke-width="1.2"/>
</svg>
