<svg width="28" height="28" viewBox="0 0 28 28" fill="none" xmlns="http://www.w3.org/2000/svg">
<path d="M11.5994 26.1465H12.5356C12.5356 26.1465 12.5356 27.2219 13.5052 27.2219C14.4747 27.2219 14.4747 26.1465 14.4747 26.1465H15.3634" stroke="#FFC800" stroke-width="1.2" stroke-linecap="round"/>
<path d="M10.7928 23.4581H15.455C15.6293 23.4584 15.8017 23.423 15.9618 23.3541C16.1218 23.2852 16.2661 23.1843 16.3856 23.0576C16.5052 22.9308 16.5975 22.7809 16.657 22.6171C16.7164 22.4533 16.7416 22.2791 16.7312 22.1052C16.6685 20.6994 16.5013 20.5085 17.4348 19.5499C18.3668 18.5941 20.5249 17.2775 20.9205 13.9824C21.0785 12.9734 21.0258 11.9426 20.7657 10.955C20.5055 9.9674 20.0436 9.0444 19.4091 8.24418C18.7746 7.44395 17.9812 6.78386 17.0789 6.30552C16.1766 5.82717 15.185 5.54095 14.1666 5.46488C13.1482 5.38881 12.1251 5.52454 11.1617 5.86353C10.1984 6.20252 9.31572 6.73741 8.56935 7.43449C7.82299 8.13156 7.22911 8.9757 6.82517 9.9137C6.42122 10.8517 6.21595 11.8632 6.22231 12.8845C6.22231 16.996 8.71335 18.491 9.77217 19.5499C10.413 20.2101 10.4829 20.5517 10.4815 21.3072" stroke="#FFC800" stroke-width="1.2" stroke-linecap="round" stroke-linejoin="round"/>
<path d="M10.793 24.8027H16.3046" stroke="#FFC800" stroke-width="1.2" stroke-linecap="round"/>
<path d="M14 0.777344L14 3.11068" stroke="#FFC800" stroke-width="1.2" stroke-linecap="round"/>
<path d="M3.85498 10.3896L1.58912 9.83257" stroke="#FFC800" stroke-width="1.2" stroke-linecap="round"/>
<path d="M23.3333 10.3896L25.5991 9.83257" stroke="#FFC800" stroke-width="1.2" stroke-linecap="round"/>
<path d="M6.41895 5.42969L4.66669 3.88889" stroke="#FFC800" stroke-width="1.2" stroke-linecap="round"/>
<path d="M21 5.40137L22.7764 3.88843" stroke="#FFC800" stroke-width="1.2" stroke-linecap="round"/>
<path d="M13.2222 23.3334L13.2222 15.5557" stroke="#FFC800" stroke-width="1.2" stroke-linecap="round"/>
<path d="M10.8889 14.7773C12.8914 15.3319 13.9022 15.2843 15.5556 14.7773" stroke="#FFC800" stroke-width="1.5" stroke-linecap="round"/>
</svg>
