<svg xmlns="http://www.w3.org/2000/svg" width="60" height="60" viewBox="0 0 60 60" fill="none"><rect width="60" height="60" rx="30" fill="#FFC800"></rect><path d="M38.5493 11.7965L38.0073 13.8405L37.9995 13.8668L37.9917 13.8912L33.4673 27.069L40.0015 27.0651L24.6274 46.8121L24.6216 46.8209L24.6147 46.8278L22.9351 48.8717L21.6255 48.2242L22.106 46.1803L22.1138 46.1442L22.1265 46.108L26.5317 33.2711L20.0005 33.275L35.6147 13.1881L35.6187 13.1823L37.2368 11.1383L38.5493 11.7965ZM23.0669 31.7731L28.6333 31.7701L24.0571 45.1022L36.9312 28.567L31.3667 28.5699L35.9614 15.1832L23.0669 31.7731Z" fill="#262626"></path><path d="M30.3141 14.8652L30.3903 14.871C30.7677 14.9171 31.0565 15.2425 31.0485 15.6308C31.0399 16.0449 30.697 16.3738 30.2829 16.3652C27.7611 16.3128 25.2626 16.961 23.0719 18.2529C20.419 19.8175 18.3738 22.2342 17.2692 25.1093C16.1647 27.9844 16.066 31.1485 16.9889 34.0869C17.7322 36.453 19.1029 38.5604 20.9401 40.1933L21.3132 40.5136L21.3698 40.5654C21.6369 40.8358 21.661 41.2699 21.4137 41.5693C21.1664 41.8686 20.7356 41.927 20.4196 41.7158L20.3581 41.6699L19.943 41.3144C17.904 39.502 16.3823 37.1632 15.5573 34.537C14.5328 31.2755 14.6428 27.7626 15.8688 24.5712C17.0949 21.3799 19.3655 18.6976 22.3102 16.9609C24.5899 15.6165 27.1697 14.8996 29.7897 14.8632L30.3141 14.8652Z" fill="#262626"></path><path d="M38.5934 18.4356C38.841 18.1368 39.2718 18.0788 39.5875 18.2901L39.6491 18.336L40.0651 18.6935C42.1126 20.5162 43.6356 22.8696 44.4557 25.5099C45.4616 28.7485 45.3518 32.2313 44.1422 35.3995C42.9326 38.5677 40.6941 41.2383 37.7858 42.9825C35.4921 44.3581 32.8862 45.0943 30.237 45.1358L29.7067 45.1349L29.6305 45.13C29.253 45.0844 28.9638 44.7586 28.9713 44.3702C28.9795 43.9562 29.322 43.6268 29.736 43.6349L30.2135 43.6358C32.6002 43.5984 34.948 42.9346 37.0143 41.6954C39.6343 40.124 41.6512 37.7185 42.7409 34.8644C43.8305 32.0103 43.9301 28.8727 43.0241 25.9552C42.2853 23.5766 40.9126 21.4557 39.068 19.8136L38.693 19.4923L38.6364 19.4405C38.3693 19.1699 38.3458 18.7349 38.5934 18.4356Z" fill="#262626"></path></svg>