<svg width="24" height="24" viewBox="0 0 24 24" fill="none" xmlns="http://www.w3.org/2000/svg">
<path d="M16.3692 2.18879L13.4503 10.6918L17.0796 10.6897L8.42159 21.811L7.41322 23.0374L7.70146 21.811L10.5496 13.5125L6.92026 13.5145L15.7239 2.18879L16.6949 0.962402L16.3692 2.18879Z" stroke="#D1D1D0" stroke-width="1.2"/>
<path d="M6.50135 18.6551C5.2194 17.596 4.26579 16.1847 3.76396 14.5872C3.17969 12.7272 3.24223 10.7242 3.94141 8.90424C4.64058 7.08431 5.9352 5.55465 7.61452 4.56426C9.00121 3.74645 10.5828 3.33613 12.1791 3.36929" stroke="#D1D1D0" stroke-width="1.2" stroke-linecap="round"/>
<path d="M17.5026 5.34839C18.79 6.41343 19.7452 7.8333 20.244 9.43927C20.8176 11.2862 20.7545 13.2723 20.0647 15.079C19.3748 16.8858 18.0983 18.4086 16.4398 19.4032C15.0446 20.2399 13.4471 20.6622 11.8328 20.6309" stroke="#D1D1D0" stroke-width="1.2" stroke-linecap="round"/>
</svg>
