<svg width="28" height="28" viewBox="0 0 28 28" fill="none" xmlns="http://www.w3.org/2000/svg">
<path d="M19.0975 2.55384L15.6921 12.474L19.9263 12.4716L9.82528 25.4465L8.64885 26.8773L8.98514 25.4465L12.3079 15.7648L8.07373 15.7672L18.3447 2.55384L19.4775 1.12305L19.0975 2.55384Z" stroke="#FFC800" stroke-width="1.2"/>
<path d="M7.58499 21.7644C6.08938 20.5287 4.97684 18.8822 4.39137 17.0184C3.70972 14.8484 3.78269 12.5116 4.59839 10.3883C5.41409 8.26507 6.92449 6.48046 8.88369 5.32501C10.5015 4.3709 12.3466 3.89219 14.209 3.93088" stroke="#FFC800" stroke-width="1.2" stroke-linecap="round"/>
<path d="M20.4197 6.24023C21.9217 7.48278 23.036 9.1393 23.618 11.0129C24.2872 13.1677 24.2136 15.4847 23.4088 17.5926C22.604 19.7005 21.1147 21.4771 19.1797 22.6376C17.552 23.6137 15.6883 24.1063 13.8049 24.0699" stroke="#FFC800" stroke-width="1.2" stroke-linecap="round"/>
</svg>
