<svg width="24" height="24" viewBox="0 0 24 24" fill="none" xmlns="http://www.w3.org/2000/svg">
<g clip-path="url(#clip0_1169_7886)">
<path d="M12.0474 6.07883L13.0474 4.27466C13.087 4.20334 13.1445 4.14367 13.2144 4.10161L16.3344 2.22294C16.4199 2.17148 16.5196 2.14885 16.619 2.15838L21.8522 2.66079C22.112 2.68573 22.3004 2.91933 22.2699 3.17847L22.1398 4.28234C22.1104 4.53177 21.8884 4.71286 21.6381 4.69153L17.288 4.32066C17.1847 4.31185 17.0814 4.33779 16.9945 4.39436L15.0188 5.68083C14.9535 5.72337 14.8999 5.78166 14.863 5.85033L14.1311 7.21074" stroke="#FFC800" stroke-width="1.2" stroke-linecap="round"/>
<path d="M9.8786 18.801L11.5198 19.6848C12.3068 20.1086 13.2883 19.819 13.7191 19.0358L15.9566 14.968C16.8326 13.3755 16.2544 11.3744 14.6639 10.4945L14.4776 10.392C14.4192 10.3599 14.3894 10.2928 14.4046 10.2279C14.4077 10.2148 14.4126 10.2021 14.4191 10.1903L15.0911 8.96831C15.3387 8.51792 15.1744 7.95203 14.724 7.70435L11.2005 5.76671C10.7501 5.51904 10.1842 5.68337 9.93651 6.13376L4.45568 16.1005C4.208 16.5509 4.37234 17.1168 4.82273 17.3645L8.34626 19.3021C8.79665 19.5498 9.36254 19.3854 9.61022 18.935L10.374 17.5461L13.819 11.2132" stroke="#FFC800" stroke-width="1.2" stroke-linecap="round"/>
<path d="M14.178 14.3338L13.6516 14.0458L14.178 14.3338ZM11.5898 17.8151C11.4308 18.1058 11.5376 18.4704 11.8283 18.6294C12.119 18.7884 12.4836 18.6817 12.6426 18.3909L11.5898 17.8151ZM13.6259 12.4406L13.915 11.9148L13.915 11.9148L13.6259 12.4406ZM14.178 14.3338L13.6516 14.0458L11.5898 17.8151L12.1162 18.103L12.6426 18.3909L14.7044 14.6217L14.178 14.3338ZM13.2066 12.21L12.9174 12.7357L13.3368 12.9663L13.6259 12.4406L13.915 11.9148L13.4957 11.6842L13.2066 12.21ZM14.178 14.3338L14.7044 14.6217C15.2325 13.6561 14.8794 12.4452 13.915 11.9148L13.6259 12.4406L13.3368 12.9663C13.7214 13.1778 13.8622 13.6607 13.6516 14.0458L14.178 14.3338Z" fill="#FFC800"/>
<path d="M5.3479 17.6611L3.22426 21.5229L5.35853 22.6966L7.48217 18.8348" stroke="#FFC800" stroke-width="1.2"/>
</g>
<defs>
<clipPath id="clip0_1169_7886">
<rect width="24" height="24" fill="white"/>
</clipPath>
</defs>
</svg>
