<svg width="24" height="24" viewBox="0 0 24 24" fill="none" xmlns="http://www.w3.org/2000/svg">
<rect width="24" height="24" rx="12" fill="white"/>
<g clip-path="url(#clip0_3937_14475)">
<path d="M18.9939 12.1308C18.9939 11.5572 18.9479 11.1386 18.8485 10.7046H12.3848V13.2934H16.1788C16.1024 13.9368 15.6893 14.9057 14.7714 15.5567L14.7585 15.6434L16.8022 17.2477L16.9438 17.262C18.2442 16.0451 18.9939 14.2546 18.9939 12.1308Z" fill="#4285F4"/>
<path d="M12.3845 18.9517C14.2433 18.9517 15.8038 18.3316 16.9436 17.262L14.7711 15.5567C14.1898 15.9675 13.4095 16.2543 12.3845 16.2543C10.564 16.2543 9.0188 15.0374 8.46799 13.3555L8.38726 13.3624L6.26217 15.0289L6.23438 15.1072C7.36648 17.386 9.6919 18.9517 12.3845 18.9517Z" fill="#34A853"/>
<path d="M8.46794 13.3556C8.32261 12.9216 8.2385 12.4565 8.2385 11.9759C8.2385 11.4953 8.32261 11.0303 8.4603 10.5962L8.45645 10.5038L6.30473 8.81055L6.23433 8.84448C5.76773 9.79012 5.5 10.852 5.5 11.9759C5.5 13.0998 5.76773 14.1617 6.23433 15.1073L8.46794 13.3556Z" fill="#FBBC05"/>
<path d="M12.3845 7.69735C13.6773 7.69735 14.5493 8.26318 15.0465 8.73602L16.9894 6.81375C15.7962 5.68985 14.2433 5 12.3845 5C9.6919 5 7.36648 6.5657 6.23438 8.8445L8.46035 10.5963C9.0188 8.91428 10.564 7.69735 12.3845 7.69735Z" fill="#EB4335"/>
</g>
<defs>
<clipPath id="clip0_3937_14475">
<rect width="14" height="14" fill="white" transform="translate(5 5)"/>
</clipPath>
</defs>
</svg>
