<svg width="24" height="24" viewBox="0 0 24 24" fill="none" xmlns="http://www.w3.org/2000/svg">
<path d="M16.4269 21.0169C15.5371 20.2759 14.298 20.2759 13.4082 21.0169L12.9971 21.3592C12.3496 21.8984 11.448 21.8984 10.8006 21.3592L10.3895 21.0169C9.49964 20.2759 8.26059 20.2759 7.37076 21.0169C6.48093 21.7579 5.24188 21.7579 4.35205 21.0169C3.46222 20.2759 2.22318 20.2759 1.33334 21.0169" stroke="#D1D1D0" stroke-width="1.2" stroke-linecap="round"/>
<path d="M7.26727 4.25647H18.9306" stroke="#D1D1D0" stroke-width="1.2" stroke-linecap="round"/>
<path d="M16.0661 18.2993L19.3028 2.66663H22V16.3665" stroke="#D1D1D0" stroke-width="1.2" stroke-linecap="round"/>
<path d="M8.08569 2.66663H5.48145L2.35635 18.2993" stroke="#D1D1D0" stroke-width="1.2" stroke-linecap="round"/>
<path d="M4.60706 18.2994C4.79723 13.3945 6.49874 9.21453 8.90406 7.17102" stroke="#D1D1D0" stroke-width="1.2" stroke-linecap="round"/>
<path d="M8.08606 18.2994C8.28529 13.3945 10.0678 9.21453 12.5877 7.17102" stroke="#D1D1D0" stroke-width="1.2" stroke-linecap="round"/>
<path d="M11.769 18.2994C11.9501 13.3945 13.5706 9.21453 15.8614 7.17102" stroke="#D1D1D0" stroke-width="1.2" stroke-linecap="round"/>
</svg>
