<svg width="28" height="28" viewBox="0 0 28 28" fill="none" xmlns="http://www.w3.org/2000/svg">
<path d="M19.1648 24.5195C18.1267 23.655 16.6811 23.655 15.643 24.5195L15.1634 24.9188C14.408 25.5479 13.3561 25.5479 12.6007 24.9188L12.1211 24.5195C11.083 23.655 9.63745 23.655 8.59932 24.5195C7.56118 25.3839 6.11563 25.3839 5.07749 24.5195C4.03935 23.655 2.5938 23.655 1.55566 24.5195" stroke="#FFC800" stroke-width="1.2" stroke-linecap="round"/>
<path d="M8.47852 4.96582H22.0857" stroke="#FFC800" stroke-width="1.5" stroke-linecap="round"/>
<path d="M18.7437 21.3495L22.5198 3.11133H25.6666V19.0945" stroke="#FFC800" stroke-width="1.5" stroke-linecap="round"/>
<path d="M9.43325 3.11133H6.39497L2.74902 21.3495" stroke="#FFC800" stroke-width="1.5" stroke-linecap="round"/>
<path d="M5.375 21.3493C5.59687 15.627 7.58196 10.7503 10.3882 8.36621" stroke="#FFC800" stroke-width="1.5" stroke-linecap="round"/>
<path d="M9.43384 21.3493C9.66627 15.627 11.7459 10.7503 14.6857 8.36621" stroke="#FFC800" stroke-width="1.5" stroke-linecap="round"/>
<path d="M13.7305 21.3493C13.9418 15.627 15.8323 10.7503 18.5049 8.36621" stroke="#FFC800" stroke-width="1.5" stroke-linecap="round"/>
</svg>
