<svg xmlns="http://www.w3.org/2000/svg" width="60" height="60" viewBox="0 0 60 60" fill="none"><rect width="60" height="60" rx="30" fill="#FFC800"></rect><path d="M31.8611 38.8889V45.5559H30.3611V38.8889H31.8611Z" fill="#262626"></path><path d="M19.4796 44.806H41.631L34.8302 22.139H26.2804L19.4796 44.806ZM36.1388 20.639H42.9835L36.1388 14.9339V20.639ZM18.1271 20.639H24.9718V14.9339L18.1271 20.639ZM26.4718 20.639H34.6388V14.0833H26.4718V20.639ZM45.8058 24.6107C45.8058 25.0248 45.4699 25.3606 45.0558 25.3607C44.6416 25.3607 44.3058 25.0249 44.3058 24.6107V22.139H36.3976L43.1974 44.806H46.6671L46.7433 44.8099C47.1215 44.8483 47.4171 45.1677 47.4171 45.556C47.4169 45.9442 47.1214 46.2638 46.7433 46.3021L46.6671 46.306H14.4444C14.0304 46.306 13.6947 45.97 13.6944 45.556C13.6944 45.1418 14.0302 44.806 14.4444 44.806H17.9142L24.714 22.139H16.8058V24.6107C16.8058 25.0248 16.4699 25.3606 16.0558 25.3607C15.6416 25.3607 15.3058 25.0249 15.3058 24.6107V21.389C15.3058 21.1665 15.4044 20.9553 15.5753 20.8128L25.2423 12.7572L25.3497 12.683C25.4624 12.6184 25.5904 12.5834 25.7218 12.5833H35.3888C35.5642 12.5833 35.7345 12.6448 35.8692 12.7572L45.5353 20.8128C45.7063 20.9553 45.8058 21.1664 45.8058 21.389V24.6107Z" fill="#262626"></path><path d="M34.7285 20.7746C35.0395 20.5563 35.4714 20.6043 35.7256 20.8977C35.9967 21.2108 35.9626 21.6851 35.6494 21.9563L23.7422 32.2649L41.3232 43.7776L41.3857 43.8225C41.6811 44.0618 41.7527 44.4908 41.54 44.8156C41.3273 45.1405 40.9058 45.2456 40.5684 45.0705L40.502 45.0324L22.0889 32.9768C21.8921 32.8479 21.7677 32.6334 21.752 32.3986C21.7363 32.1641 21.831 31.9354 22.0088 31.7815L34.668 20.8215L34.7285 20.7746Z" fill="#262626"></path><path d="M25.3984 20.883C25.6777 20.5772 26.1521 20.5558 26.458 20.8352L39.1171 32.3977C39.2904 32.556 39.3789 32.787 39.3574 33.0207C39.3357 33.2544 39.2061 33.4641 39.0068 33.5881L20.5947 45.0412C20.243 45.26 19.7803 45.1526 19.5615 44.801C19.3427 44.4493 19.4501 43.9866 19.8017 43.7678L37.374 32.8371L25.4462 21.9426C25.1405 21.6632 25.1191 21.1888 25.3984 20.883Z" fill="#262626"></path></svg>