<svg width="28" height="28" viewBox="0 0 28 28" fill="none" xmlns="http://www.w3.org/2000/svg">
<path d="M14.6533 24.29C14.4629 24.4267 14.2344 24.5003 14 24.5003C13.7656 24.5003 13.5371 24.4267 13.3467 24.29C7.71282 20.2743 1.73365 12.0143 7.77816 6.04567C9.43755 4.41332 11.6723 3.49898 14 3.5C16.3333 3.5 18.5722 4.41583 20.2218 6.0445C26.2663 12.0132 20.2872 20.272 14.6533 24.29Z" stroke="#FFC800" stroke-width="1.5" stroke-linecap="round" stroke-linejoin="round"/>
<path d="M14 14C14.6188 14 15.2123 13.7542 15.6499 13.3166C16.0875 12.879 16.3333 12.2855 16.3333 11.6667C16.3333 11.0478 16.0875 10.4543 15.6499 10.0168C15.2123 9.57917 14.6188 9.33334 14 9.33334C13.3811 9.33334 12.7876 9.57917 12.35 10.0168C11.9125 10.4543 11.6666 11.0478 11.6666 11.6667C11.6666 12.2855 11.9125 12.879 12.35 13.3166C12.7876 13.7542 13.3811 14 14 14Z" stroke="#FFC800" stroke-width="1.5" stroke-linecap="round" stroke-linejoin="round"/>
</svg>
