<svg width="28" height="28" viewBox="0 0 28 28" fill="none" xmlns="http://www.w3.org/2000/svg">
<path d="M15.1988 4.67276V4.67276C15.1988 4.11292 15.6526 3.65909 16.2125 3.65909H16.3023C16.9118 3.65909 17.4058 4.15315 17.4058 4.76261V10.9508" stroke="#FFC800" stroke-width="1.5" stroke-linecap="round"/>
<path d="M12.9916 5.11111V3.43686C12.9916 2.8274 13.4856 2.33334 14.0951 2.33334V2.33334C14.7045 2.33334 15.1986 2.8274 15.1986 3.43686V9.625" stroke="#FFC800" stroke-width="1.5" stroke-linecap="round"/>
<path d="M10.7848 9.625V4.76261C10.7848 4.15315 11.2788 3.65909 11.8883 3.65909V3.65909C12.4978 3.65909 12.9918 4.15315 12.9918 4.76261V9.625" stroke="#FFC800" stroke-width="1.5" stroke-linecap="round"/>
<path d="M9.79494 4.32198L9.79495 5.07198L9.79494 4.32198ZM9.66475 4.32198L9.66475 3.57198L9.66475 4.32198ZM8.54399 5.40519L9.29366 5.4272V5.4272L8.54399 5.40519ZM8.57761 16.2308L9.28292 15.9758L8.57761 16.2308ZM9.84307 18.116L10.3644 17.5768C10.5105 17.7181 10.5931 17.9127 10.5931 18.116H9.84307ZM16.0908 18.5758H15.3408C15.3408 18.4149 15.3925 18.2583 15.4883 18.1291L16.0908 18.5758ZM19.0436 14.3456L18.3971 13.9654L19.0436 14.3456ZM22.2176 11.6485L22.6928 12.2287C22.6798 12.2395 22.6663 12.2497 22.6525 12.2595L22.2176 11.6485ZM21.1527 10.0235L21.1853 10.7728L21.1527 10.0235ZM17.9656 11.265L18.5127 11.778C18.3409 11.9612 18.0888 12.0462 17.8412 12.0046L17.9656 11.265ZM15.1506 13.907C15.1134 14.3196 14.7489 14.6239 14.3364 14.5868C13.9238 14.5497 13.6195 14.1852 13.6566 13.7727L14.4036 13.8398L15.1506 13.907ZM9.79494 4.32198L9.79495 5.07198L9.66476 5.07198L9.66475 4.32198L9.66475 3.57198L9.79493 3.57198L9.79494 4.32198ZM8.54399 5.40519L9.29366 5.4272C9.25289 6.81562 9.18741 9.31086 9.16905 11.5593C9.15986 12.6844 9.16254 13.7409 9.18558 14.5635C9.19712 14.9757 9.21356 15.3207 9.2352 15.5827C9.25964 15.8785 9.28514 15.9819 9.28292 15.9758L8.57761 16.2308L7.8723 16.4858C7.79601 16.2748 7.76235 15.9732 7.74029 15.7061C7.71544 15.4052 7.69805 15.0295 7.68617 14.6055C7.66237 13.7559 7.65986 12.6784 7.6691 11.547C7.68759 9.28249 7.75345 6.77464 7.79431 5.38317L8.54399 5.40519ZM8.57761 16.2308L9.28292 15.9758C9.42813 16.3774 9.69046 16.7764 9.93802 17.0915C10.0586 17.245 10.1688 17.3699 10.2478 17.4554C10.2872 17.498 10.3184 17.5304 10.3388 17.5511C10.349 17.5615 10.3565 17.5689 10.3609 17.5733C10.363 17.5755 10.3645 17.5769 10.3651 17.5774C10.3654 17.5777 10.3655 17.5778 10.3654 17.5777C10.3653 17.5777 10.3652 17.5776 10.365 17.5774C10.3649 17.5773 10.3649 17.5772 10.3647 17.5771C10.3647 17.5771 10.3646 17.577 10.3646 17.577C10.3645 17.5769 10.3644 17.5768 9.84307 18.116C9.32174 18.6552 9.32164 18.6551 9.32153 18.655C9.32149 18.6549 9.32138 18.6548 9.3213 18.6547C9.32114 18.6546 9.32096 18.6544 9.32077 18.6542C9.32039 18.6539 9.31996 18.6534 9.31947 18.653C9.3185 18.652 9.3173 18.6509 9.31589 18.6495C9.31308 18.6467 9.30941 18.6431 9.30494 18.6387C9.29599 18.6298 9.2838 18.6176 9.26873 18.6023C9.23861 18.5716 9.19684 18.5282 9.14631 18.4736C9.04552 18.3645 8.90835 18.2089 8.75853 18.0182C8.46533 17.6451 8.09493 17.1015 7.8723 16.4858L8.57761 16.2308ZM9.84307 18.116H10.5931V20.2311H9.84307H9.09307V18.116H9.84307ZM16.0908 20.2311H15.3408V18.5758H16.0908H16.8408V20.2311H16.0908ZM16.0908 18.5758L15.4883 18.1291C16.2462 17.1068 17.8593 14.88 18.3971 13.9654L19.0436 14.3456L19.6901 14.7258C19.103 15.7241 17.4352 18.0217 16.6933 19.0224L16.0908 18.5758ZM19.0436 14.3456L18.3971 13.9654C18.7592 13.3496 19.4622 12.7402 20.083 12.2585C20.7223 11.7625 21.4106 11.3023 21.7827 11.0375L22.2176 11.6485L22.6525 12.2595C22.2278 12.5618 21.6103 12.972 21.0025 13.4436C20.376 13.9297 19.8903 14.3853 19.6901 14.7258L19.0436 14.3456ZM22.2176 11.6485L21.7424 11.0683C21.7423 11.0683 21.7447 11.0664 21.7488 11.0618C21.7529 11.0572 21.758 11.0506 21.7637 11.0419C21.7754 11.0241 21.7864 11.0016 21.7942 10.9769C21.8112 10.9233 21.8046 10.8912 21.8025 10.8851C21.802 10.8836 21.8019 10.8833 21.8003 10.8813C21.7986 10.8794 21.7876 10.8669 21.7557 10.8501C21.6881 10.8146 21.5205 10.7582 21.1853 10.7728L21.1527 10.0235L21.12 9.27422C22.1378 9.22984 22.9555 9.60096 23.2255 10.4105C23.4543 11.0966 23.1704 11.8376 22.6928 12.2287L22.2176 11.6485ZM21.1527 10.0235L21.1853 10.7728C19.7017 10.8375 18.7435 11.5319 18.5127 11.778L17.9656 11.265L17.4185 10.7519C17.9064 10.2317 19.2291 9.35667 21.12 9.27422L21.1527 10.0235ZM17.9656 11.265L17.8412 12.0046C17.4019 11.9307 16.7355 11.9522 16.1877 12.2195C15.6942 12.4603 15.2391 12.9221 15.1506 13.907L14.4036 13.8398L13.6566 13.7727C13.793 12.2562 14.5721 11.3387 15.53 10.8714C16.4336 10.4306 17.4357 10.4153 18.09 10.5254L17.9656 11.265ZM9.66475 4.32198L9.66476 5.07198C9.45955 5.07198 9.29942 5.23123 9.29366 5.4272L8.54399 5.40519L7.79431 5.38317C7.82414 4.36714 8.65743 3.57199 9.66475 3.57198L9.66475 4.32198ZM9.79494 4.32198L9.79493 3.57198C10.7583 3.57197 11.5393 4.35292 11.5393 5.31629H10.7893H10.0393C10.0393 5.18136 9.92988 5.07198 9.79495 5.07198L9.79494 4.32198Z" fill="#FFC800"/>
<mask id="path-5-inside-1_3116_10744" fill="white">
<rect width="10.6061" height="5.65656" rx="1" transform="matrix(-1 0 0 1 18.3131 20.0101)"/>
</mask>
<rect width="10.6061" height="5.65656" rx="1" transform="matrix(-1 0 0 1 18.3131 20.0101)" stroke="#FFC800" stroke-width="3" mask="url(#path-5-inside-1_3116_10744)"/>
</svg>
