<svg width="24" height="24" viewBox="0 0 24 24" fill="none" xmlns="http://www.w3.org/2000/svg">
<path d="M11.8956 16.6666V15.5685C11.5273 15.5286 11.1759 15.4454 10.8416 15.319C10.5129 15.1926 10.2324 15.0229 10.0001 14.8099L10.3741 13.5921C10.6348 13.8117 10.9294 13.9847 11.2581 14.1111C11.5868 14.2376 11.9325 14.3008 12.2951 14.3008C12.6805 14.3008 12.9553 14.2276 13.1197 14.0812C13.2897 13.9348 13.3747 13.7551 13.3747 13.5422C13.3747 13.3558 13.318 13.2028 13.2047 13.083C13.0913 12.9632 12.8873 12.8667 12.5927 12.7935L11.6576 12.5539C10.6263 12.2877 10.1106 11.6422 10.1106 10.6174C10.1106 10.0584 10.2721 9.5859 10.5951 9.19992C10.9181 8.81394 11.3516 8.57104 11.8956 8.47122V7.33325H12.9072V8.45126C13.2075 8.49118 13.4937 8.57437 13.7657 8.70081C14.0377 8.82725 14.2672 8.99695 14.4542 9.2099L14.0802 10.3479C13.6552 9.91531 13.1112 9.69903 12.4481 9.69903C12.1251 9.69903 11.8673 9.77888 11.6746 9.9386C11.4876 10.0983 11.3941 10.3046 11.3941 10.5575C11.3941 10.7438 11.4508 10.8936 11.5641 11.0067C11.6775 11.1198 11.8701 11.213 12.1421 11.2862L13.0687 11.5258C14.134 11.7986 14.6667 12.4308 14.6667 13.4224C14.6667 13.988 14.5024 14.4539 14.1737 14.8199C13.8507 15.1859 13.4285 15.4221 12.9072 15.5286V16.6666H11.8956Z" fill="#D1D1D0"/>
<path d="M15.9692 6.47826C12.9197 4.28612 8.67046 4.98118 6.47831 8.03073C4.28617 11.0803 4.98123 15.3295 8.03078 17.5216C11.0803 19.7138 15.3296 19.0187 17.5217 15.9692C18.1127 15.147 18.4939 14.2376 18.6756 13.3048C18.865 12.3324 18.8378 11.3346 18.6056 10.3837" stroke="#D1D1D0" stroke-width="1.2" stroke-linecap="round"/>
<circle cx="12" cy="12" r="9.4" stroke="#D1D1D0" stroke-width="1.2"/>
</svg>
