<svg width="24" height="24" viewBox="0 0 24 24" fill="none" xmlns="http://www.w3.org/2000/svg">
<path d="M11.8956 16.6663V15.5683C11.5272 15.5284 11.1759 15.4452 10.8415 15.3187C10.5129 15.1923 10.2323 15.0226 10 14.8097L10.374 13.5918C10.6347 13.8114 10.9294 13.9845 11.258 14.1109C11.5867 14.2373 11.9324 14.3006 12.2951 14.3006C12.6804 14.3006 12.9553 14.2274 13.1196 14.081C13.2896 13.9346 13.3746 13.7549 13.3746 13.5419C13.3746 13.3556 13.318 13.2025 13.2046 13.0827C13.0913 12.963 12.8873 12.8665 12.5926 12.7933L11.6576 12.5537C10.6262 12.2875 10.1105 11.642 10.1105 10.6171C10.1105 10.0581 10.272 9.58565 10.595 9.19967C10.918 8.8137 11.3515 8.5708 11.8956 8.47098V7.33301H12.9071V8.45101C13.2074 8.49094 13.4936 8.57412 13.7656 8.70057C14.0376 8.82701 14.2672 8.9967 14.4542 9.20966L14.0801 10.3476C13.6551 9.91506 13.1111 9.69878 12.4481 9.69878C12.1251 9.69878 11.8672 9.77864 11.6746 9.93836C11.4876 10.0981 11.3941 10.3044 11.3941 10.5573C11.3941 10.7436 11.4507 10.8933 11.5641 11.0064C11.6774 11.1196 11.8701 11.2127 12.1421 11.2859L13.0686 11.5255C14.134 11.7984 14.6667 12.4306 14.6667 13.4221C14.6667 13.9878 14.5023 14.4536 14.1736 14.8196C13.8506 15.1857 13.4285 15.4219 12.9071 15.5284V16.6663H11.8956Z" fill="#FFC800"/>
<path d="M15.9692 6.47802C12.9197 4.28587 8.67043 4.98094 6.47828 8.03048C4.28614 11.08 4.9812 15.3293 8.03075 17.5214C11.0803 19.7136 15.3295 19.0185 17.5217 15.9689C18.1127 15.1467 18.4939 14.2373 18.6756 13.3045C18.865 12.3321 18.8377 11.3343 18.6055 10.3835" stroke="#FFC800" stroke-width="1.2" stroke-linecap="round"/>
<circle cx="12" cy="12" r="9.4" stroke="#FFC800" stroke-width="1.2"/>
</svg>
