<svg width="28" height="28" viewBox="0 0 28 28" fill="none" xmlns="http://www.w3.org/2000/svg">
<path d="M16.2033 6.64883C16.5347 6.64883 16.8033 6.3802 16.8033 6.04883C16.8033 5.71746 16.5347 5.44883 16.2033 5.44883V6.64883ZM6.61279 18.0368H7.21279V11.0985H6.61279H6.01279V18.0368H6.61279ZM11.6624 6.04883V6.64883H16.2033V6.04883V5.44883H11.6624V6.04883ZM6.61279 11.0985H7.21279C7.21279 8.641 9.20496 6.64883 11.6624 6.64883V6.04883V5.44883C8.54222 5.44883 6.01279 7.97826 6.01279 11.0985H6.61279Z" fill="#D1D1D0"/>
<path d="M3.69434 15.6768L6.61283 18.5954L9.53148 15.6768" stroke="#D1D1D0" stroke-width="1.2" stroke-linecap="round" stroke-linejoin="round"/>
<path d="M11.7967 21.3512C11.4653 21.3512 11.1967 21.6198 11.1967 21.9512C11.1967 22.2825 11.4653 22.5512 11.7967 22.5512L11.7967 21.3512ZM21.3872 9.9632L20.7872 9.9632L20.7872 16.9015L21.3872 16.9015L21.9872 16.9015L21.9872 9.9632L21.3872 9.9632ZM16.3376 21.9512L16.3376 21.3512L11.7967 21.3512L11.7967 21.9512L11.7967 22.5512L16.3376 22.5512L16.3376 21.9512ZM21.3872 16.9015L20.7872 16.9015C20.7872 19.359 18.795 21.3512 16.3376 21.3512L16.3376 21.9512L16.3376 22.5512C19.4578 22.5512 21.9872 20.0217 21.9872 16.9015L21.3872 16.9015Z" fill="#D1D1D0"/>
<path d="M24.3057 12.3232L21.3872 9.40459L18.4685 12.3232" stroke="#D1D1D0" stroke-width="1.2" stroke-linecap="round" stroke-linejoin="round"/>
</svg>
