<svg width="28" height="28" viewBox="0 0 28 28" fill="none" xmlns="http://www.w3.org/2000/svg">
<path d="M24.2115 4.59107V4.59107C24.2115 3.34398 23.2005 2.33301 21.9534 2.33301H11.4134C10.4445 2.33301 9.50851 2.68468 8.77934 3.3227L5.2549 6.40659C4.38684 7.16614 3.88892 8.26345 3.88892 9.4169V21.6663C3.88892 23.8755 5.67978 25.6663 7.88892 25.6663H20.2115C22.4206 25.6663 24.2115 23.8755 24.2115 21.6663V8.73086" stroke="#FFC800" stroke-width="1.2" stroke-linecap="round"/>
<path d="M3.88892 8.55523H8.88892C9.99349 8.55523 10.8889 7.6598 10.8889 6.55523V2.33301" stroke="#FFC800" stroke-width="1.2"/>
<path d="M13.6759 16.504C13.6759 16.4488 13.6311 16.404 13.5759 16.404H10.2774C10.202 16.404 10.1537 16.3238 10.189 16.2572L14.9135 7.35487C14.9623 7.26282 15.1018 7.29754 15.1018 7.40175V12.2737C15.1018 12.329 15.1466 12.3737 15.2018 12.3737H18.5004C18.5758 12.3737 18.624 12.454 18.5887 12.5206L13.8642 21.4229C13.8154 21.515 13.6759 21.4802 13.6759 21.376V16.504Z" stroke="#FFC800" stroke-width="1.2"/>
</svg>
