<svg xmlns="http://www.w3.org/2000/svg" width="60" height="60" viewBox="0 0 60 60" fill="none"><rect width="60" height="60" rx="30" fill="#FFC800"></rect><path d="M43.8378 16.5589C43.8376 15.1917 42.7294 14.0834 41.3622 14.0833H25.661C24.8738 14.0833 24.1128 14.3687 23.5204 14.8871L17.4149 20.2298C16.71 20.8469 16.3056 21.7382 16.3055 22.6751V42.6664C16.3055 44.4613 17.7606 45.9164 19.5555 45.9164H40.5878C42.3827 45.9164 43.8378 44.4613 43.8378 42.6664V22.473C43.8378 22.0589 44.1736 21.723 44.5878 21.723C45.0019 21.723 45.3377 22.0588 45.3378 22.473V42.6664C45.3378 45.2897 43.2111 47.4164 40.5878 47.4164H19.5555C16.9322 47.4164 14.8055 45.2897 14.8055 42.6664V22.6751C14.8056 21.3056 15.397 20.0028 16.4276 19.1009L22.5331 13.7581C23.3989 13.0007 24.5106 12.5833 25.661 12.5833H41.3622C43.5578 12.5834 45.3376 14.3633 45.3378 16.5589C45.3378 16.9731 45.002 17.3089 44.5878 17.3089C44.1736 17.3089 43.8378 16.9731 43.8378 16.5589Z" fill="#262626"></path><path d="M24.8055 20.222V13.3333H26.3055V20.222C26.3055 21.7408 25.0743 22.972 23.5555 22.972H15.5555V21.472H23.5555C24.2459 21.472 24.8055 20.9124 24.8055 20.222Z" fill="#262626"></path><path d="M30.8097 19.8691C31.282 19.2601 32.324 19.5712 32.3243 20.4014V26.9267H36.5001C37.1409 26.9267 37.5512 27.6087 37.2511 28.1748L30.3878 41.1074C29.9725 41.8899 28.7872 41.5948 28.7872 40.709V34.1846H24.6105C23.9697 34.1844 23.5591 33.5016 23.8595 32.9355L30.7237 20.0029L30.8097 19.8691ZM30.2872 38.0967L35.419 28.4267H31.6739C31.2047 28.4267 30.8245 28.0464 30.8243 27.5771V23.0117L25.6905 32.6846H29.4366C29.906 32.6846 30.2871 33.0648 30.2872 33.5342V38.0967Z" fill="#262626"></path></svg>