<svg xmlns="http://www.w3.org/2000/svg" width="60" height="60" viewBox="0 0 60 60" fill="none"><rect width="60" height="60" rx="30" fill="#FFC800"></rect><path d="M32.7458 35.1286C32.7458 31.0289 29.3317 27.6735 25.0807 27.6735C20.83 27.6738 17.4167 31.0291 17.4167 35.1286C17.4169 39.2279 20.8302 42.5834 25.0807 42.5837C29.3316 42.5837 32.7456 39.2281 32.7458 35.1286ZM34.2458 35.1286C34.2456 40.0919 30.1241 44.0837 25.0807 44.0837C20.0376 44.0834 15.9169 40.0917 15.9167 35.1286C15.9167 30.1653 20.0375 26.1738 25.0807 26.1735C27.0686 26.1735 28.9123 26.795 30.4177 27.8503L42.4382 16.1296C42.7347 15.8404 43.2095 15.8467 43.4987 16.1432C43.7879 16.4397 43.7824 16.9146 43.486 17.2038L42.447 18.2165C42.6966 18.3231 42.9316 18.4739 43.1364 18.6735L45.5241 21.0016C45.8204 21.2908 45.8259 21.7657 45.5368 22.0622C45.2477 22.3585 44.7728 22.3648 44.4763 22.0758L42.0895 19.7477C41.7931 19.4587 41.305 19.4588 41.0085 19.7477L38.7321 21.9675C38.4464 22.2462 38.4464 22.6897 38.7321 22.9684L41.1188 25.2966L41.1716 25.3522C41.4156 25.6437 41.4037 26.079 41.1325 26.3571C40.8613 26.6351 40.4271 26.6573 40.1296 26.4206L40.072 26.3698L37.6852 24.0426C37.4707 23.8334 37.308 23.5922 37.197 23.3346L31.5778 28.8141C33.2244 30.4306 34.2458 32.6589 34.2458 35.1286Z" fill="#262626"></path></svg>