<svg width="28" height="28" viewBox="0 0 28 28" fill="none" xmlns="http://www.w3.org/2000/svg">
<path d="M21.8321 2.33232L22.162 1.83113C22.064 1.76667 21.9493 1.73232 21.8321 1.73232V2.33232ZM17.7943 2.33232V1.73232C17.6771 1.73232 17.5624 1.76667 17.4645 1.83113L17.7943 2.33232ZM24.8604 25.9103V26.5103C25.0345 26.5103 25.2001 26.4347 25.3141 26.303C25.428 26.1714 25.4792 25.9967 25.4542 25.8243L24.8604 25.9103ZM14.766 25.9103L14.1722 25.8243C14.1473 25.9967 14.1984 26.1714 14.3124 26.303C14.4263 26.4347 14.5919 26.5103 14.766 26.5103V25.9103ZM13.0836 25.3103C12.7522 25.3103 12.4836 25.5789 12.4836 25.9103C12.4836 26.2417 12.7522 26.5103 13.0836 26.5103V25.9103V25.3103ZM26.5428 26.5103C26.8742 26.5103 27.1428 26.2417 27.1428 25.9103C27.1428 25.5789 26.8742 25.3103 26.5428 25.3103V25.9103V26.5103ZM13.7566 4.98986L13.4267 4.48868C13.2581 4.59966 13.1566 4.788 13.1566 4.98986H13.7566ZM25.8699 4.98986H26.4699C26.4699 4.788 26.3683 4.59966 26.1997 4.48868L25.8699 4.98986ZM13.1566 6.92972C13.1566 7.26109 13.4252 7.52972 13.7566 7.52972C14.0879 7.52972 14.3566 7.26109 14.3566 6.92972H13.7566H13.1566ZM25.2699 6.92972C25.2699 7.26109 25.5385 7.52972 25.8699 7.52972C26.2012 7.52972 26.4699 7.26109 26.4699 6.92972H25.8699H25.2699ZM13.8733 16.0162C14.2046 16.0162 14.4733 15.7475 14.4733 15.4162C14.4733 15.0848 14.2046 14.8162 13.8733 14.8162V15.4162V16.0162ZM13.8732 13.8955C14.2046 13.8955 14.4732 13.6268 14.4732 13.2955C14.4732 12.9641 14.2046 12.6955 13.8732 12.6955V13.2955V13.8955ZM20.0445 21.8055H19.4445V25.9103H20.0445H20.6445V21.8055H20.0445ZM21.8321 2.33232V1.73232H17.7943V2.33232V2.93232H21.8321V2.33232ZM17.7943 2.33232H17.1943V4.98986H17.7943H18.3943V2.33232H17.7943ZM17.7943 4.98986V5.58986H21.8321V4.98986V4.38986H17.7943V4.98986ZM21.8321 4.98986H22.4321V2.33232H21.8321H21.2321V4.98986H21.8321ZM24.8604 25.9103V25.3103H14.766V25.9103V26.5103H24.8604V25.9103ZM14.766 25.9103L15.3598 25.9963L18.3881 5.07582L17.7943 4.98986L17.2005 4.90391L14.1722 25.8243L14.766 25.9103ZM21.8321 4.98986L21.2383 5.07582L24.2666 25.9963L24.8604 25.9103L25.4542 25.8243L22.4259 4.90391L21.8321 4.98986ZM13.0836 25.9103V26.5103H26.5428V25.9103V25.3103H13.0836V25.9103ZM13.7566 4.98986V5.58986H25.8699V4.98986V4.38986H13.7566V4.98986ZM13.7566 4.98986H13.1566V6.92972H13.7566H14.3566V4.98986H13.7566ZM13.7566 4.98986L14.0864 5.49105L18.1242 2.83351L17.7943 2.33232L17.4645 1.83113L13.4267 4.48868L13.7566 4.98986ZM25.8699 4.98986H25.2699V6.92972H25.8699H26.4699V4.98986H25.8699ZM25.8699 4.98986L26.1997 4.48868L22.162 1.83113L21.8321 2.33232L21.5022 2.83351L25.54 5.49105L25.8699 4.98986ZM17.2151 4.98095L16.7909 5.40522L21.987 10.6012L22.4112 10.1769L22.8355 9.75266L17.6394 4.55668L17.2151 4.98095ZM22.4112 4.98095L21.987 4.55668L16.7909 9.75266L17.2151 10.1769L17.6394 10.6012L22.8355 5.40522L22.4112 4.98095ZM22.4112 10.7821L21.9631 10.3831L15.5225 17.6152L15.9706 18.0142L16.4187 18.4132L22.8593 11.1812L22.4112 10.7821ZM17.2151 10.7821L16.7671 11.1812L23.2077 18.4132L23.6557 18.0142L24.1038 17.6152L17.6632 10.3831L17.2151 10.7821ZM23.2221 18.0142L22.8141 17.5743L14.3633 25.4115L14.7712 25.8514L15.1792 26.2913L23.63 18.4541L23.2221 18.0142ZM16.4043 18.0142L15.9963 18.4541L24.4471 26.2913L24.8551 25.8514L25.2631 25.4115L16.8123 17.5743L16.4043 18.0142ZM3.37617 15.4162V16.0162H13.8733V15.4162V14.8162H3.37617V15.4162ZM13.8733 25.9103V25.3103H3.37617V25.9103V26.5103H13.8733V25.9103ZM2.98728 25.5214H3.58728V15.8051H2.98728H2.38728V25.5214H2.98728ZM3.37617 25.9103V25.3103C3.49276 25.3103 3.58728 25.4048 3.58728 25.5214H2.98728H2.38728C2.38728 26.0676 2.83002 26.5103 3.37617 26.5103V25.9103ZM3.37617 15.4162V14.8162C2.83002 14.8162 2.38728 15.2589 2.38728 15.8051H2.98728H3.58728C3.58728 15.9217 3.49276 16.0162 3.37617 16.0162V15.4162ZM4.22419 15.4162V14.8162H1.84568V15.4162V16.0162H4.22419V15.4162ZM1.45679 15.0273H2.05679V13.6844H1.45679H0.856787V15.0273H1.45679ZM1.84568 13.2955V13.8955H13.8732V13.2955V12.6955H1.84568V13.2955ZM1.45679 13.6844H2.05679C2.05679 13.8009 1.96227 13.8955 1.84568 13.8955V13.2955V12.6955C1.29953 12.6955 0.856787 13.1382 0.856787 13.6844H1.45679ZM1.84568 15.4162V14.8162C1.96227 14.8162 2.05679 14.9107 2.05679 15.0273H1.45679H0.856787C0.856787 15.5735 1.29953 16.0162 1.84568 16.0162V15.4162ZM5.8649 25.792H6.4649V18.2079H5.8649H5.2649V25.792H5.8649ZM6.25379 17.819V18.419H11.7093V17.819V17.219H6.25379V17.819ZM12.0982 18.2079H11.4982V25.792H12.0982H12.6982V18.2079H12.0982ZM11.7093 17.819V18.419C11.5927 18.419 11.4982 18.3245 11.4982 18.2079H12.0982H12.6982C12.6982 17.6617 12.2554 17.219 11.7093 17.219V17.819ZM5.8649 18.2079H6.4649C6.4649 18.3245 6.37038 18.419 6.25379 18.419V17.819V17.219C5.70764 17.219 5.2649 17.6617 5.2649 18.2079H5.8649ZM7.66807 23.9217V24.5217H10.2957V23.9217V23.3217H7.66807V23.9217ZM7.66807 21.8908V22.4908H10.2957V21.8908V21.2908H7.66807V21.8908ZM7.66807 19.8599V20.4599H10.2957V19.8599V19.2599H7.66807V19.8599ZM6.2395 13.2768H6.8395V11.3475H6.2395H5.6395V13.2768H6.2395ZM6.39506 11.1919V11.7919H8.93491V11.1919V10.5919H6.39506V11.1919ZM9.09047 11.3475H8.49047V13.2768H9.09047H9.69047V11.3475H9.09047ZM8.93491 11.1919V11.7919C8.68945 11.7919 8.49047 11.593 8.49047 11.3475H9.09047H9.69047C9.69047 10.9302 9.35219 10.5919 8.93491 10.5919V11.1919ZM6.2395 11.3475H6.8395C6.8395 11.593 6.64052 11.7919 6.39506 11.7919V11.1919V10.5919C5.97777 10.5919 5.6395 10.9302 5.6395 11.3475H6.2395ZM7.63116 11.5749H8.23116V9.83639H7.63116H7.03116V11.5749H7.63116ZM8.02005 9.4475V10.0475H16.7364V9.4475V8.8475H8.02005V9.4475ZM7.63116 9.83639H8.23116C8.23116 9.95298 8.13664 10.0475 8.02005 10.0475V9.4475V8.8475C7.4739 8.8475 7.03116 9.29024 7.03116 9.83639H7.63116Z" fill="#FFC800"/>
</svg>
