<svg width="28" height="28" viewBox="0 0 28 28" fill="none" xmlns="http://www.w3.org/2000/svg">
<path d="M16.2181 1.30894C17.0016 0.903143 17.4837 0.439379 18.2068 1.13503C18.6889 2.06256 16.6401 2.46835 15.8566 2.87414C15.0732 3.27994 14.9527 4.03355 14.9527 5.01905C14.9527 6.00455 15.7964 6.64223 15.8566 7.97555C15.9169 9.30888 17.2427 9.42482 18.6288 9.48279C20.0148 9.54076 19.8943 10.4683 21.4009 10.4683C22.9074 10.4683 23.1485 10.6422 23.6306 11.4538C24.1127 12.2654 23.028 13.8886 22.8472 14.8741C22.6664 15.8596 24.7153 17.3668 23.9319 18.0045C23.1485 18.6421 20.738 16.903 19.8943 18.874C19.0506 20.845 20.4969 21.7146 20.738 22.2363C20.979 22.7581 20.3161 25.0189 20.1353 26.1203C20.0378 26.7144 19.8436 27.0081 19.6781 27.1364C19.5594 27.2284 19.3972 27.2012 19.2567 27.148C17.8494 26.615 18.5082 25.7171 18.5082 24.5551C18.5082 23.3378 16.2785 24.2073 15.013 24.2073C13.7474 24.2073 12.3613 21.7146 11.2163 20.845C10.0713 19.9755 2.65895 19.1059 5.19001 17.0769C7.72107 15.048 7.78129 12.7291 7.23892 10.6422C6.97234 9.61644 7.19256 8.8737 7.51385 8.39515C7.81478 7.94692 8.13131 7.45802 8.30042 6.94532C8.46107 6.45826 8.76261 5.971 9.28787 5.83064C10.3726 5.54079 10.3726 4.43935 11.0958 3.27994C11.8189 2.12052 15.4347 1.71473 16.2181 1.30894Z" stroke="#FFC800" stroke-width="1.5"/>
</svg>
