<svg xmlns="http://www.w3.org/2000/svg" width="60" height="60" viewBox="0 0 60 60" fill="none"><rect width="60" height="60" rx="30" fill="white"></rect><path d="M43.8374 25.1064C43.8373 24.4642 43.5816 23.8484 43.1275 23.3944C42.6734 22.9405 42.0576 22.6853 41.4156 22.6855C40.7738 22.6856 40.1575 22.9398 39.7036 23.3935L39.2271 23.871C39.2545 23.9969 39.2944 24.1555 39.357 24.3358C39.5265 24.824 39.847 25.4664 40.4517 26.0712C41.0563 26.6758 41.6994 26.9963 42.188 27.1659C42.3675 27.2282 42.5262 27.2674 42.6519 27.2948L43.1285 26.8183C43.5824 26.3642 43.8375 25.7484 43.8374 25.1064ZM32.0855 31.0146L32.0845 31.0165C31.6076 31.4901 31.4113 31.6873 31.2466 31.8983L31.2476 31.8993C31.0449 32.1603 30.8716 32.4402 30.729 32.7392V32.7401C30.6136 32.9817 30.526 33.241 30.312 33.8827L29.5767 36.0888L30.4341 36.9462L32.6411 36.2108C33.283 35.9969 33.5431 35.9094 33.7847 35.7939C34.0838 35.6512 34.3635 35.478 34.6245 35.2753C34.8357 35.1104 35.0319 34.9168 35.5113 34.4374L41.4546 28.4921C40.8387 28.2476 40.093 27.8336 39.3911 27.1317C38.6892 26.4297 38.2742 25.6849 38.0298 25.0692L32.0855 31.0146ZM45.3374 25.1064C45.3375 26.1458 44.9246 27.1425 44.19 27.8778L43.4429 28.6269L36.5718 35.498C36.1166 35.9531 35.8467 36.224 35.5454 36.4589L35.5445 36.4599C35.1992 36.728 34.8278 36.9588 34.4302 37.1483L34.4292 37.1474C34.0841 37.3122 33.7214 37.4328 33.1158 37.6347L30.4683 38.5155L29.8228 38.7323L29.8208 38.7333C29.5384 38.827 29.2354 38.8399 28.9458 38.7714C28.6561 38.7028 28.3907 38.5551 28.1802 38.3446C27.9698 38.1341 27.822 37.8686 27.7535 37.579C27.6851 37.2898 27.6981 36.9871 27.7915 36.705L28.0064 36.0565L28.0074 36.0546L28.8892 33.4081C29.0913 32.8017 29.2104 32.4381 29.3755 32.0927C29.565 31.6954 29.795 31.3235 30.063 30.9784L30.064 30.9774C30.2992 30.6759 30.5691 30.4067 31.0269 29.9521L37.896 23.0829L38.6421 22.3349H38.6431C39.3783 21.5994 40.3756 21.1856 41.4156 21.1855C42.4555 21.1853 43.4526 21.5987 44.188 22.3339C44.9235 23.0691 45.3372 24.0664 45.3374 25.1064Z" fill="#262626"></path><path d="M24.4262 37.3149L24.5033 37.3188C24.8815 37.3572 25.1762 37.6766 25.1762 38.0649C25.1761 38.4531 24.8815 38.7725 24.5033 38.811L24.4262 38.8149H22.0072C21.5931 38.8149 21.2573 38.4791 21.2572 38.0649C21.2572 37.6507 21.593 37.3149 22.0072 37.3149H24.4262ZM26.0395 30.8627C26.4535 30.8627 26.7892 31.1987 26.7895 31.6127C26.7895 32.0269 26.4537 32.3627 26.0395 32.3627H22.0072C21.593 32.3627 21.2572 32.0269 21.2572 31.6127C21.2575 31.1987 21.5932 30.8627 22.0072 30.8627H26.0395ZM32.4906 24.4116C32.9048 24.4116 33.2406 24.7473 33.2406 25.1616C33.2406 25.5758 32.9048 25.9116 32.4906 25.9116H22.0072C21.593 25.9116 21.2572 25.5758 21.2572 25.1616C21.2572 24.7473 21.593 24.4116 22.0072 24.4116H32.4906Z" fill="#262626"></path><path d="M43.8378 18.7093V17.7777C43.8377 15.7374 42.1838 14.0834 40.1434 14.0833H19.9999C17.9596 14.0834 16.3056 15.7374 16.3056 17.7777V42.222C16.3056 44.2624 17.9596 45.9163 19.9999 45.9164H40.1434C42.1838 45.9163 43.8378 44.2624 43.8378 42.222V32.6878C43.838 32.2738 44.1737 31.9379 44.5878 31.9378C45.0019 31.9378 45.3376 32.2738 45.3378 32.6878V42.222C45.3378 45.0908 43.0122 47.4163 40.1434 47.4164H19.9999C17.1311 47.4163 14.8056 45.0908 14.8056 42.222V17.7777C14.8056 14.909 17.1312 12.5834 19.9999 12.5833H40.1434C43.0122 12.5834 45.3377 14.9089 45.3378 17.7777V18.7093C45.3378 19.1235 45.002 19.4593 44.5878 19.4593C44.1736 19.4593 43.8378 19.1235 43.8378 18.7093Z" fill="#262626"></path></svg>