<svg width="28" height="28" viewBox="0 0 28 28" fill="none" xmlns="http://www.w3.org/2000/svg">
<path d="M19.8986 9.52914L20.4214 9.00527C20.8376 8.5889 21.4022 8.35493 21.9909 8.35482C22.5796 8.35471 23.1443 8.58848 23.5607 9.0047C23.977 9.42092 24.211 9.9855 24.2111 10.5742C24.2112 11.163 23.9774 11.7276 23.5612 12.144L23.0385 12.6678M19.8986 9.52914C19.8986 9.52914 19.9641 10.6401 20.9453 11.6212C21.9264 12.6024 23.0385 12.6678 23.0385 12.6678M19.8986 9.52914L15.089 14.3388C14.7616 14.664 14.599 14.8277 14.459 15.0072C14.2941 15.2195 14.153 15.4475 14.0367 15.6914C13.9385 15.8969 13.8662 16.1148 13.7206 16.5517L13.103 18.4045M23.0385 12.6678L18.2288 17.4775C17.9014 17.8049 17.7388 17.9675 17.5593 18.1075C17.347 18.2724 17.119 18.4135 16.8751 18.5298C16.6696 18.628 16.4517 18.7003 16.0148 18.8459L14.162 19.4635M13.103 18.4045L12.9528 18.8583C12.9179 18.9637 12.9129 19.0767 12.9385 19.1847C12.964 19.2927 13.0191 19.3915 13.0976 19.47C13.1761 19.5485 13.2749 19.6036 13.3829 19.6292C13.4909 19.6547 13.6039 19.6498 13.7093 19.6148L14.162 19.4635M13.103 18.4045L14.162 19.4635" stroke="#FFC800" stroke-width="1.5"/>
<path d="M8.40509 15.1292H11.2277M8.40509 10.6131H15.7438M8.40509 19.6453H10.0986" stroke="#FFC800" stroke-width="1.5" stroke-linecap="round"/>
<path d="M24.2115 6.09678V5.44445C24.2115 3.72623 22.8186 2.33334 21.1004 2.33334H7.00003C5.28181 2.33334 3.88892 3.72623 3.88892 5.44445V22.5556C3.88892 24.2738 5.28181 25.6667 7.00003 25.6667H21.1004C22.8186 25.6667 24.2115 24.2738 24.2115 22.5556V15.8817" stroke="#FFC800" stroke-width="1.5" stroke-linecap="round"/>
</svg>
