<svg width="24" height="24" viewBox="0 0 24 24" fill="none" xmlns="http://www.w3.org/2000/svg">
<path d="M15.9519 3.10059C16.7026 3.10059 17.4278 3.18857 18.1257 3.36523L18.1267 3.36426C18.8375 3.53034 19.4626 3.77389 19.988 4.10449L20.4597 4.40137L20.198 4.89355L18.7419 7.62891L18.4519 8.17285C19.0073 8.49799 19.4708 8.92498 19.8337 9.45508L19.9978 9.70996C20.3542 10.3179 20.5251 11.0117 20.5251 11.7725C20.5251 12.5944 20.3352 13.343 19.9431 14L19.7625 14.2764C19.2618 14.9777 18.5868 15.5109 17.7576 15.8818L17.7585 15.8828C16.941 16.2538 16.0388 16.4335 15.0623 16.4336C13.9987 16.4336 13.0256 16.2622 12.1541 15.9072L11.7869 15.7441C10.9519 15.34 10.3078 14.8337 9.8728 14.4297C9.65485 14.2273 9.48752 14.0482 9.3728 13.918C9.31542 13.8528 9.27099 13.799 9.23999 13.7607C9.22448 13.7416 9.2117 13.7262 9.20288 13.7148C9.19854 13.7093 9.19484 13.7047 9.19214 13.7012C9.1908 13.6994 9.19014 13.6975 9.18921 13.6963L9.18726 13.6953V13.6943C9.18715 13.6942 9.18689 13.6938 9.66675 13.334L9.18628 13.6934L8.92944 13.3516L9.17065 12.9971L11.7009 9.2666H9.21655L9.45386 8.49219C9.63733 7.89118 9.88634 7.209 10.0867 6.68359C10.1873 6.41972 10.2763 6.19253 10.3406 6.03125C10.3727 5.95054 10.3988 5.88613 10.4167 5.8418C10.4256 5.81983 10.4325 5.80273 10.4373 5.79102C10.4377 5.78981 10.4378 5.7882 10.4382 5.78711C10.6261 5.2321 10.8622 4.8459 11.1941 4.54785C11.5046 4.269 11.8787 4.09463 12.2029 3.92871L12.2048 3.92773L12.4138 3.82617C13.4641 3.3374 14.6478 3.10063 15.9519 3.10059ZM14.7878 11.3613C14.6329 11.3613 14.5231 11.3929 14.4412 11.4375C14.3517 11.4862 14.2804 11.5512 14.2214 11.6387C14.1843 11.7076 14.155 11.8067 14.155 11.9551C14.1551 12.1031 14.1844 12.2016 14.2214 12.2705C14.2777 12.354 14.3457 12.4159 14.4294 12.4639C14.5158 12.503 14.6305 12.5312 14.7878 12.5312C14.9493 12.5312 15.066 12.5017 15.1531 12.4609C15.2485 12.4109 15.3081 12.3525 15.3484 12.2832C15.3886 12.2139 15.4206 12.1121 15.4207 11.9551C15.4207 11.7261 15.3551 11.6104 15.2722 11.5342L15.2664 11.5293L15.2615 11.5244C15.1619 11.428 15.0225 11.3613 14.7878 11.3613ZM16.0378 7.33398C15.6667 7.33399 15.3535 7.39304 15.0867 7.50098C15.3204 7.47338 15.5635 7.45997 15.8152 7.45996C16.6094 7.45996 17.3541 7.62494 18.0417 7.95801L17.8728 7.8418C17.6489 7.688 17.4313 7.57916 17.2195 7.50977L17.0095 7.45312L16.9988 7.45117L16.988 7.44824C16.6834 7.37216 16.367 7.33398 16.0378 7.33398Z" stroke="#D1D1D0" stroke-width="1.2"/>
<path d="M11.9067 1.73342L9.3673 9.13068L11.8943 9.1289L4.99251 18.804L4.23053 19.8709H4L4.36603 18.804L6.84379 11.5846L4.31676 11.5864L11.3453 1.73342L12.1073 0.666504H12.2727L11.9067 1.73342Z" stroke="#D1D1D0" stroke-width="1.2"/>
<path d="M9.11761 23.4166C8.71854 23.4166 8.34999 23.3532 8.01195 23.2263C7.6786 23.0946 7.38752 22.9092 7.13868 22.6701C6.89455 22.431 6.7044 22.148 6.56824 21.8211C6.43209 21.4942 6.36401 21.1331 6.36401 20.7379C6.36401 20.3426 6.43209 19.9816 6.56824 19.6546C6.7044 19.3277 6.89689 19.0447 7.14573 18.8056C7.39456 18.5665 7.68799 18.3836 8.02603 18.2567C8.36877 18.125 8.74436 18.0591 9.15282 18.0591C9.6411 18.0591 10.0754 18.1445 10.4557 18.3152C10.8407 18.486 11.1576 18.73 11.4064 19.0472L10.343 20.0206C10.1881 19.8352 10.019 19.6961 9.83594 19.6034C9.65753 19.5058 9.458 19.457 9.23733 19.457C9.05423 19.457 8.88756 19.4863 8.73732 19.5448C8.59178 19.6034 8.46736 19.6888 8.36407 19.801C8.26078 19.9132 8.18097 20.0474 8.12463 20.2036C8.06829 20.3597 8.04012 20.5378 8.04012 20.7379C8.04012 20.9282 8.06829 21.1038 8.12463 21.2648C8.18097 21.421 8.26078 21.5551 8.36407 21.6674C8.46736 21.7796 8.58943 21.8674 8.73028 21.9309C8.87582 21.9894 9.0378 22.0187 9.21621 22.0187C9.40401 22.0187 9.58711 21.987 9.76552 21.9235C9.94393 21.8552 10.1341 21.7406 10.336 21.5795L11.2656 22.7652C10.9651 22.975 10.6224 23.1361 10.2374 23.2483C9.85238 23.3605 9.47913 23.4166 9.11761 23.4166ZM9.82186 22.5457V20.5988H11.2656V22.7652L9.82186 22.5457Z" fill="#D1D1D0"/>
<path d="M13.3883 23.4171L11.7217 18.0596H13.5297L14.4359 21.1034L15.3972 18.0596H17.0117L17.9201 21.1448L18.8792 18.0596H20.5459L18.8792 23.4171H16.9969L16.1568 20.5524L15.2707 23.4171H13.3883Z" fill="#D1D1D0"/>
</svg>
