<svg width="200" height="67" viewBox="0 0 200 67" fill="none" xmlns="http://www.w3.org/2000/svg">
<g clip-path="url(#clip0_3506_10281)">
<path d="M51.7905 25.4315C46.3874 25.4315 42.0483 27.1488 38.7733 29.6033C39.6738 27.3945 40.9843 25.4315 42.5388 23.8767C45.4039 21.014 49.4159 19.2966 53.755 19.2966C57.4401 19.2966 61.7779 21.1778 64.726 23.7141L73.2394 10.5447C68.4915 6.70051 61.7779 4.65555 54.0003 4.65555C43.5211 4.65555 35.5799 8.58167 29.8499 14.3071C26.3398 17.8134 23.6586 22.0697 21.7848 26.605H30.5102C31.3086 26.605 32.0405 27.049 32.4122 27.7567C32.7826 28.4657 32.7315 29.3218 32.2755 29.9795L19.3234 48.74C20.2571 52.3398 22.0186 55.4801 24.5285 57.9871C28.4588 61.9132 34.4342 64.2039 41.6383 64.2039C55.7183 64.2039 67.2628 54.0609 67.2628 40.482C67.2628 30.9931 60.0586 25.4315 51.7905 25.4315ZM25.5593 0L0 39.123H11.3414L25.5593 0ZM18.0333 28.7562L4.10788 67L30.5115 28.7562H18.0333ZM41.5578 50.7888C39.9203 50.7888 38.5293 50.1348 37.6275 49.2339C36.727 48.3343 36.2352 47.0252 36.2352 45.5535C36.2352 41.2998 39.265 37.2918 43.5211 37.2918C46.7144 37.2918 48.8424 39.5824 48.8424 42.527C48.8424 46.7807 45.8139 50.7888 41.5565 50.7888H41.5578Z" fill="#FFC800"/>
<path d="M137.256 22.7939L144.534 22.8976C148.853 22.8976 151.497 23.7332 153.237 25.4724C154.476 26.7098 155.077 28.3491 155.077 30.1881C155.077 36.0414 150.659 39.9547 143.229 39.9547H139.915L138.209 46.3097L129.97 46.2406L137.256 22.7939ZM142.828 34.3688C145.807 34.3688 147.18 33.0316 147.18 31.2592C147.18 30.7575 146.979 30.2559 146.611 29.8886C146.076 29.3537 145.138 29.1528 144.269 29.1528H142.796L141.423 34.3701H142.828V34.3688Z" fill="#FFC800"/>
<path d="M157.824 21.8945H165.422L158.861 46.3099H151.263L157.824 21.8945Z" fill="#FFC800"/>
<path d="M161.574 41.1587C161.574 40.2219 161.708 39.1854 162.009 38.0823L164.687 28.0482H172.285L169.842 37.1455C169.708 37.6139 169.641 38.1488 169.641 38.5161C169.641 39.4861 170.143 40.1208 171.247 40.1208C172.753 40.1208 173.556 39.1176 174.093 37.1443L176.535 28.0469H184.134L179.247 46.3082H171.649L172.251 44.0342C171.046 45.5058 169.072 46.7433 166.795 46.7433C163.449 46.7433 161.574 44.5691 161.574 41.1574V41.1587Z" fill="#FFC800"/>
<path d="M179.649 43.7007L182.997 39.3523C184.637 40.6576 187.482 41.8272 189.558 41.8272C190.328 41.8272 190.629 41.5252 190.629 41.1912C190.629 40.5897 190.061 40.289 187.785 39.4521C184.839 38.3823 182.797 37.0437 182.797 34.1682C182.797 30.5223 185.876 27.6123 191.365 27.6123C195.048 27.6123 198.16 28.7167 200.001 30.1205L196.654 34.4689C195.249 33.4989 192.907 32.5289 191.098 32.5289C190.261 32.5289 189.894 32.7631 189.894 33.1304C189.894 33.632 190.295 33.8329 192.538 34.6353C195.45 35.6719 197.725 36.9426 197.725 40.1534C197.725 43.1978 195.583 46.7425 189.425 46.7425C185.275 46.7425 181.894 45.4053 179.649 43.6981V43.7007Z" fill="#FFC800"/>
<path d="M92.5959 39.4331C92.4937 39.4766 92.3889 39.5304 92.2893 39.5688C91.3173 39.9156 90.3184 40.0883 89.2953 40.0883C88.2721 40.0883 87.4406 39.9284 86.6474 39.6084C85.8797 39.2616 85.2142 38.7817 84.6509 38.17C84.0876 37.5571 83.6533 36.8251 83.3455 35.9715C83.0389 35.0924 82.8844 34.1339 82.8844 33.0947C82.8844 32.0019 83.0376 31.0293 83.3455 30.177C83.652 29.3235 84.0876 28.5915 84.6509 27.9785C85.2142 27.3655 85.8925 26.8997 86.6857 26.5798C87.5044 26.2599 88.4126 26.0999 89.4115 26.0999C90.6147 26.0999 91.7017 26.3661 92.6738 26.8997C93.6714 27.4065 94.5936 28.1653 95.4379 29.1776L101.233 23.863C99.8766 22.1303 98.1497 20.7981 96.051 19.8665C93.9779 18.9349 91.611 18.4678 88.9504 18.4678C86.724 18.4678 84.6764 18.8274 82.809 19.5466C80.9671 20.2389 79.3679 21.2383 78.0113 22.5436C76.6548 23.8489 75.6061 25.3948 74.864 27.18C74.1219 28.9652 73.7515 30.9372 73.7515 33.0947C73.7515 35.2523 74.1219 37.2243 74.864 39.0095C75.6061 40.7947 76.6421 42.3393 77.973 43.6459C79.3295 44.9512 80.916 45.9634 82.7323 46.6826C84.5743 47.3749 86.5835 47.7217 88.7588 47.7217C90.7284 47.7217 92.7632 47.4159 94.8618 46.8029C96.9605 46.1899 98.8279 45.3108 100.465 44.1654V32.3359H92.5971V39.4331H92.5959Z" fill="white"/>
<path d="M107.855 44.1121L101.639 24.0938H108.382L111.762 35.4677L115.347 24.0938H121.369L124.756 35.6226L128.334 24.0938H134.551L128.334 44.1121H121.314L118.181 33.4074L114.876 44.1121H107.856H107.855Z" fill="white"/>
<path d="M51.7903 25.4312C46.3872 25.4312 42.0482 27.1486 38.7731 29.603C39.6736 27.3943 40.9841 25.4312 42.5387 23.8764C45.4037 21.0137 49.4158 19.2963 53.7549 19.2963C57.44 19.2963 61.7778 21.1775 64.7258 23.7139L73.2392 10.5445C68.4914 6.70023 61.7778 4.65527 54.0001 4.65527C43.5209 4.65527 35.5798 8.58139 29.8497 14.3068C26.3396 17.8132 23.6585 22.0694 21.7847 26.6047H30.5101C31.3084 26.6047 32.0403 27.0488 32.412 27.7564C32.7824 28.4654 32.7313 29.3202 32.2753 29.9793L19.3232 48.7397C20.257 52.3395 22.0184 55.4799 24.5283 57.9868C28.4587 61.9129 34.434 64.2036 41.6381 64.2036C55.7181 64.2036 67.2626 54.0607 67.2626 40.4818C67.2626 30.9928 60.0585 25.4312 51.7903 25.4312ZM41.5577 50.7885C39.9201 50.7885 38.5291 50.1346 37.6273 49.2336C36.7268 48.334 36.235 47.0249 36.235 45.5532C36.235 41.2995 39.2649 37.2915 43.5209 37.2915C46.7142 37.2915 48.8423 39.5821 48.8423 42.5267C48.8423 46.7805 45.8137 50.7885 41.5564 50.7885H41.5577Z" fill="white"/>
</g>
<defs>
<clipPath id="clip0_3506_10281">
<rect width="200" height="67" fill="white"/>
</clipPath>
</defs>
</svg>
