<svg width="24" height="24" viewBox="0 0 24 24" fill="none" xmlns="http://www.w3.org/2000/svg">
<path d="M3.99966 16.6002H9.99966C10.4047 16.6002 10.7331 16.9286 10.7331 17.3336V19.9996C10.7331 20.4046 10.4047 20.733 9.99966 20.733H3.99966C3.59481 20.7329 3.26627 20.4045 3.26627 19.9996V17.3336C3.26627 16.9287 3.59481 16.6004 3.99966 16.6002ZM13.9997 9.93323H19.9997C20.4047 9.93323 20.7331 10.2616 20.7331 10.6666V19.9996C20.7331 20.4046 20.4047 20.733 19.9997 20.733H13.9997C13.5948 20.7329 13.2663 20.4045 13.2663 19.9996V10.6666C13.2663 10.2617 13.5948 9.9334 13.9997 9.93323ZM3.99966 3.26624H9.99966C10.4046 3.26624 10.7329 3.59477 10.7331 3.99963V13.3336C10.7329 13.7385 10.4046 14.067 9.99966 14.067H3.99966C3.59491 14.0668 3.26644 13.7384 3.26627 13.3336V3.99963L3.27017 3.92542C3.3075 3.55551 3.61996 3.2664 3.99966 3.26624ZM13.9997 3.26624H19.9997C20.4046 3.26624 20.7329 3.59477 20.7331 3.99963V6.66663C20.7331 7.07163 20.4047 7.40002 19.9997 7.40002H13.9997C13.5948 7.39985 13.2663 7.07153 13.2663 6.66663V3.99963C13.2664 3.59488 13.5949 3.26641 13.9997 3.26624Z" stroke="#B8FF65" stroke-width="1.2"/>
</svg>
