<svg width="24" height="24" viewBox="0 0 24 24" fill="none" xmlns="http://www.w3.org/2000/svg">
<path d="M9.94238 22.4116H10.7449C10.7449 22.4116 10.7449 23.3334 11.5759 23.3334C12.4069 23.3334 12.4069 22.4116 12.4069 22.4116H13.1687" stroke="#B8FF65" stroke-width="1.2" stroke-linecap="round"/>
<path d="M9.25104 20.1071H13.2472C13.3966 20.1073 13.5444 20.077 13.6816 20.018C13.8187 19.959 13.9424 19.8725 14.0449 19.7638C14.1474 19.6552 14.2265 19.5267 14.2774 19.3863C14.3284 19.2459 14.35 19.0966 14.3411 18.9475C14.2873 17.7425 14.144 17.5789 14.9441 16.7572C15.743 15.938 17.5928 14.8094 17.9319 11.9851C18.0674 11.1202 18.0222 10.2367 17.7992 9.39018C17.5762 8.54366 17.1803 7.75252 16.6364 7.06661C16.0925 6.38071 15.4125 5.81492 14.6391 5.40491C13.8657 4.9949 13.0157 4.74956 12.1428 4.68435C11.2699 4.61915 10.393 4.7355 9.56725 5.02606C8.74153 5.31662 7.98496 5.7751 7.34522 6.37259C6.70548 6.97008 6.19644 7.69363 5.8502 8.49763C5.50396 9.30163 5.32802 10.1686 5.33347 11.044C5.33347 14.5682 7.46864 15.8496 8.37621 16.7572C8.92546 17.3231 8.98541 17.6159 8.98416 18.2635" stroke="#B8FF65" stroke-width="1.2" stroke-linecap="round" stroke-linejoin="round"/>
<path d="M9.25113 21.2593H13.9754" stroke="#B8FF65" stroke-width="1.2" stroke-linecap="round"/>
<path d="M12 0.666748L12 2.66675" stroke="#B8FF65" stroke-width="1.2" stroke-linecap="round"/>
<path d="M3.30435 8.90527L1.36219 8.42778" stroke="#B8FF65" stroke-width="1.2" stroke-linecap="round"/>
<path d="M20 8.90527L21.9422 8.42778" stroke="#B8FF65" stroke-width="1.2" stroke-linecap="round"/>
<path d="M5.50192 4.65405L3.99999 3.33337" stroke="#B8FF65" stroke-width="1.2" stroke-linecap="round"/>
<path d="M18 4.63013L19.5226 3.33332" stroke="#B8FF65" stroke-width="1.2" stroke-linecap="round"/>
<path d="M11.3333 19.9999L11.3333 13.3333" stroke="#B8FF65" stroke-width="1.2" stroke-linecap="round"/>
<path d="M9.33334 12.6667C11.0497 13.1421 11.9161 13.1012 13.3333 12.6667" stroke="#B8FF65" stroke-width="1.2" stroke-linecap="round"/>
</svg>
