<svg width="28" height="28" viewBox="0 0 28 28" fill="none" xmlns="http://www.w3.org/2000/svg">
<circle cx="13.7235" cy="12.9252" r="0.785159" stroke="#FFC800" stroke-width="1.2"/>
<path d="M14.3931 14.1719C14.3931 13.8405 14.1244 13.5719 13.7931 13.5719C13.4617 13.5719 13.1931 13.8405 13.1931 14.1719H14.3931ZM13.7931 25.9189V26.5189H14.3931V25.9189H13.7931ZM10.9534 25.3189C10.622 25.3189 10.3534 25.5875 10.3534 25.9189C10.3534 26.2502 10.622 26.5189 10.9534 26.5189V25.3189ZM16.494 26.5189C16.8254 26.5189 17.094 26.2502 17.094 25.9189C17.094 25.5875 16.8254 25.3189 16.494 25.3189V26.5189ZM13.7931 14.1719H13.1931V25.9189H13.7931H14.3931V14.1719H13.7931ZM13.7931 25.9189V25.3189H10.9534V25.9189V26.5189H13.7931V25.9189ZM10.9534 25.9189V26.5189H13.7237V25.9189V25.3189H10.9534V25.9189ZM13.7237 25.9189V26.5189H16.494V25.9189V25.3189H13.7237V25.9189Z" fill="#FFC800"/>
<path d="M11.0917 13.3402L9.62988 12.2157C9.43478 12.0657 9.15947 12.0799 8.9809 12.2493L4.04479 16.9323C3.94527 17.0267 3.88892 17.1578 3.88892 17.295V17.8661C3.88892 18.2533 4.30997 18.4936 4.64328 18.2966L12.7139 13.5276" stroke="#FFC800" stroke-width="1.2" stroke-linecap="round"/>
<path d="M15.7177 14.9449L15.6936 16.789C15.6904 17.0352 15.8668 17.247 16.1094 17.2884L22.8165 18.4334C22.9517 18.4564 23.0905 18.423 23.2003 18.3408L23.6575 17.9985C23.9674 17.7665 23.9074 17.2854 23.55 17.1366L15.1088 13.6228L14.8322 13.5077" stroke="#FFC800" stroke-width="1.2" stroke-linecap="round"/>
<path d="M13.6621 11.9557L13.6621 2.43421C13.6621 2.04754 14.0822 1.8072 14.4155 2.00321L14.9164 2.29773C15.0351 2.36753 15.1197 2.4832 15.1504 2.61745L16.6644 9.25C16.7192 9.48998 16.5912 9.73413 16.3627 9.82553L14.6502 10.5104" stroke="#FFC800" stroke-width="1.2" stroke-linecap="round"/>
</svg>
