<svg width="24" height="24" viewBox="0 0 24 24" fill="none" xmlns="http://www.w3.org/2000/svg">
<path d="M2 22H22" stroke="#B8FF65" stroke-width="1.2" stroke-linecap="round"/>
<path d="M9.91498 18.4609H7.63995L4.79196 21.7471" stroke="#B8FF65" stroke-width="1.2" stroke-linecap="round"/>
<path d="M13.8762 18.4609H16.1512L18.9992 21.7471" stroke="#B8FF65" stroke-width="1.2" stroke-linecap="round"/>
<path d="M11.8956 19.3306V22" stroke="#B8FF65" stroke-width="1.2" stroke-linecap="round"/>
<path d="M12.6153 3.06934C12.3794 4.51464 12.8037 6.06662 13.8604 7.12109V7.12207C14.1517 7.41378 14.4652 7.65336 14.7511 7.86816C15.0426 8.08723 15.3019 8.27752 15.544 8.49707C15.7111 8.66662 15.8526 8.80435 15.9767 8.94629L16.0987 9.0957C16.0997 9.09712 16.1006 9.09903 16.1017 9.10059C16.1135 9.1181 16.131 9.14369 16.1524 9.17578C16.1956 9.24048 16.2544 9.33077 16.3185 9.43164C16.4527 9.64316 16.5872 9.86929 16.6524 10.0146L16.6563 10.0244L16.6612 10.0342L16.753 10.2207C17.3676 11.7513 17.0096 13.5286 15.8956 14.7295L15.6622 14.9619C14.5825 15.9524 13.0669 16.2883 11.5489 16.1553L11.2452 16.1221H11.2442C9.81869 15.9416 8.46881 15.0412 7.68466 13.7725C7.46115 13.3694 7.27237 12.934 7.17685 12.5176L7.17001 12.4893L7.16122 12.4619L7.08701 12.2021C7.02515 11.9435 6.99157 11.6725 6.95517 11.3643C6.90953 10.5319 7.06883 9.67909 7.3956 8.91406C7.48563 9.72255 7.77811 10.508 8.27841 11.167C8.32143 11.2381 8.3717 11.3046 8.42978 11.3643L8.50302 11.4336C8.78719 11.6764 9.21464 11.8143 9.65048 11.6299L9.65146 11.6309C9.65385 11.6299 9.65591 11.6279 9.65829 11.627C9.66139 11.6256 9.66497 11.6254 9.66806 11.624L9.66708 11.6221C10.0285 11.4675 10.3077 11.1012 10.3077 10.6641C10.3077 10.5477 10.2893 10.4448 10.2667 10.3613L10.2022 10.1738C9.34054 7.90264 10.0182 5.26311 11.7784 3.69727L11.9522 3.54883C12.1654 3.37476 12.3863 3.21204 12.6153 3.06934Z" stroke="#B8FF65" stroke-width="1.2"/>
</svg>
