<svg width="24" height="24" viewBox="0 0 24 24" fill="none" xmlns="http://www.w3.org/2000/svg">
<path d="M2 22H22" stroke="#FFC800" stroke-width="1.2" stroke-linecap="round"/>
<path d="M9.91504 18.4609H7.64001L4.79202 21.7471" stroke="#FFC800" stroke-width="1.2" stroke-linecap="round"/>
<path d="M13.8762 18.4609H16.1512L18.9992 21.7471" stroke="#FFC800" stroke-width="1.2" stroke-linecap="round"/>
<path d="M11.8958 19.3301V21.9995" stroke="#FFC800" stroke-width="1.2" stroke-linecap="round"/>
<path d="M12.6155 3.06934C12.3796 4.51464 12.8038 6.06662 13.8606 7.12109V7.12207C14.1519 7.41378 14.4653 7.65336 14.7512 7.86816C15.0428 8.08723 15.3021 8.27752 15.5442 8.49707C15.7113 8.66662 15.8527 8.80435 15.9768 8.94629L16.0989 9.0957C16.0998 9.09712 16.1008 9.09903 16.1018 9.10059C16.1137 9.1181 16.1312 9.14369 16.1526 9.17578C16.1958 9.24048 16.2546 9.33077 16.3186 9.43164C16.4528 9.64316 16.5873 9.86929 16.6526 10.0146L16.6565 10.0244L16.6614 10.0342L16.7532 10.2207C17.3677 11.7513 17.0097 13.5286 15.8958 14.7295L15.6624 14.9619C14.5827 15.9524 13.0671 16.2883 11.5491 16.1553L11.2454 16.1221H11.2444C9.81884 15.9416 8.46897 15.0412 7.68481 13.7725C7.4613 13.3694 7.27252 12.934 7.177 12.5176L7.17017 12.4893L7.16138 12.4619L7.08716 12.2021C7.0253 11.9435 6.99172 11.6725 6.95532 11.3643C6.90968 10.5319 7.06899 9.67909 7.39575 8.91406C7.48578 9.72255 7.77826 10.508 8.27856 11.167C8.32158 11.2381 8.37185 11.3046 8.42993 11.3643L8.50317 11.4336C8.78734 11.6764 9.21479 11.8143 9.65063 11.6299L9.65161 11.6309C9.654 11.6299 9.65607 11.6279 9.65845 11.627C9.66154 11.6256 9.66512 11.6254 9.66821 11.624L9.66724 11.6221C10.0287 11.4675 10.3079 11.1012 10.3079 10.6641C10.3078 10.5477 10.2895 10.4448 10.2668 10.3613L10.2024 10.1738C9.34069 7.90264 10.0183 5.26311 11.7786 3.69727L11.9524 3.54883C12.1655 3.37476 12.3864 3.21204 12.6155 3.06934Z" stroke="#FFC800" stroke-width="1.2"/>
</svg>
