<svg width="24" height="24" viewBox="0 0 24 24" fill="none" xmlns="http://www.w3.org/2000/svg">
<g clip-path="url(#clip0_572_10293)">
<path d="M12.0472 6.0781L13.0473 4.27392C13.0868 4.20261 13.1444 4.14294 13.2142 4.10088L16.3343 2.22221C16.4197 2.17075 16.5195 2.14811 16.6188 2.15765L21.852 2.66006C22.1118 2.685 22.3003 2.9186 22.2697 3.17774L22.1396 4.28161C22.1102 4.53104 21.8882 4.71213 21.6379 4.6908L17.2878 4.31992C17.1845 4.31112 17.0812 4.33706 16.9944 4.39362L15.0187 5.68009C14.9533 5.72264 14.8997 5.78093 14.8628 5.8496L14.1309 7.21001" stroke="#D1D1D0" stroke-width="1.2" stroke-linecap="round"/>
<path d="M9.8786 18.8007L11.5198 19.6846C12.3068 20.1084 13.2883 19.8187 13.7191 19.0355L15.9566 14.9678C16.8326 13.3753 16.2544 11.3741 14.6639 10.4943L14.4776 10.3918C14.4192 10.3596 14.3894 10.2926 14.4046 10.2277C14.4077 10.2145 14.4126 10.2019 14.4191 10.19L15.0911 8.96807C15.3387 8.51768 15.1744 7.95178 14.724 7.70411L11.2005 5.76647C10.7501 5.51879 10.1842 5.68313 9.93651 6.13352L4.45568 16.1003C4.208 16.5506 4.37234 17.1165 4.82273 17.3642L8.34626 19.3019C8.79665 19.5495 9.36254 19.3852 9.61022 18.9348L10.374 17.5458L13.819 11.2129" stroke="#D1D1D0" stroke-width="1.2" stroke-linecap="round"/>
<path d="M14.1779 14.3335L13.6515 14.0456L14.1779 14.3335ZM11.5897 17.8148C11.4307 18.1055 11.5375 18.4701 11.8282 18.6292C12.1189 18.7882 12.4835 18.6814 12.6425 18.3907L11.5897 17.8148ZM13.6258 12.4403L13.9149 11.9146L13.9149 11.9146L13.6258 12.4403ZM14.1779 14.3335L13.6515 14.0456L11.5897 17.8148L12.1161 18.1028L12.6425 18.3907L14.7043 14.6214L14.1779 14.3335ZM13.2065 12.2097L12.9173 12.7355L13.3367 12.9661L13.6258 12.4403L13.9149 11.9146L13.4956 11.684L13.2065 12.2097ZM14.1779 14.3335L14.7043 14.6214C15.2325 13.6558 14.8793 12.4449 13.9149 11.9146L13.6258 12.4403L13.3367 12.9661C13.7213 13.1776 13.8621 13.6605 13.6515 14.0456L14.1779 14.3335Z" fill="#D1D1D0"/>
<path d="M5.34793 17.6606L3.22429 21.5224L5.35856 22.6961L7.4822 18.8343" stroke="#D1D1D0" stroke-width="1.2"/>
</g>
<defs>
<clipPath id="clip0_572_10293">
<rect width="24" height="24" fill="white"/>
</clipPath>
</defs>
</svg>
