<svg width="24" height="24" viewBox="0 0 24 24" fill="none" xmlns="http://www.w3.org/2000/svg">
<path d="M5.38599 8.77116C5.38599 7.2984 6.57989 6.10449 8.05265 6.10449H15.9478C17.4206 6.10449 18.6145 7.2984 18.6145 8.77116V18.0437C18.6145 19.5164 17.4206 20.7103 15.9478 20.7103H8.05265C6.57989 20.7103 5.38599 19.5164 5.38599 18.0437V8.77116Z" stroke="#FFC800" stroke-width="1.2"/>
<path d="M16.0257 20.8408C16.0257 21.5772 15.4287 22.1742 14.6924 22.1742H9.30745C8.57107 22.1742 7.97412 21.5772 7.97412 20.8408" stroke="#FFC800" stroke-width="1.2"/>
<path d="M9.75049 2.5752H14.2211" stroke="#FFC800" stroke-width="1.2" stroke-linecap="round"/>
<path d="M12.0435 6.10376L12.0435 4.65527" stroke="#FFC800" stroke-width="1.2" stroke-linecap="round"/>
<path d="M5.18042 17.498H18.8194" stroke="#FFC800" stroke-width="1.2" stroke-linecap="round"/>
<path d="M5.18042 9.62695H18.8194" stroke="#FFC800" stroke-width="1.2" stroke-linecap="round"/>
<path d="M9.49466 6.10379V1.8252H8.96053C8.22415 1.8252 7.6272 2.42215 7.6272 3.15853V6.10379M14.5055 6.10379V1.8252H15.0396C15.776 1.8252 16.373 2.42215 16.373 3.15853V6.10379" stroke="#FFC800" stroke-width="1.2" stroke-linecap="round"/>
<path d="M11.2937 4.29785H12.793" stroke="#FFC800" stroke-width="1.2" stroke-linecap="round"/>
<path d="M15.9841 11.1504L15.9841 15.9845" stroke="#FFC800" stroke-width="1.2" stroke-linecap="round"/>
<path d="M15.9841 7.74414V8.19116" stroke="#FFC800" stroke-width="1.2" stroke-linecap="round"/>
</svg>
