<svg width="24" height="24" viewBox="0 0 24 24" fill="none" xmlns="http://www.w3.org/2000/svg">
<path d="M5.38589 8.77067C5.38589 7.29791 6.5798 6.104 8.05256 6.104H15.9477C17.4205 6.104 18.6144 7.29791 18.6144 8.77067V18.0432C18.6144 19.5159 17.4205 20.7098 15.9477 20.7098H8.05256C6.5798 20.7098 5.38589 19.5159 5.38589 18.0432V8.77067Z" stroke="#B8FF65" stroke-width="1.2"/>
<path d="M16.0257 20.8411C16.0257 21.5774 15.4287 22.1744 14.6924 22.1744H9.30745C8.57107 22.1744 7.97412 21.5774 7.97412 20.8411" stroke="#B8FF65" stroke-width="1.2"/>
<path d="M9.75049 2.57544H14.2211" stroke="#B8FF65" stroke-width="1.2" stroke-linecap="round"/>
<path d="M12.0435 6.104L12.0435 4.65552" stroke="#B8FF65" stroke-width="1.2" stroke-linecap="round"/>
<path d="M5.18051 17.4985H18.8195" stroke="#B8FF65" stroke-width="1.2" stroke-linecap="round"/>
<path d="M5.18051 9.62671H18.8195" stroke="#B8FF65" stroke-width="1.2" stroke-linecap="round"/>
<path d="M9.49457 6.10403V1.82544H8.96044C8.22406 1.82544 7.62711 2.42239 7.62711 3.15877V6.10403M14.5054 6.10403V1.82544H15.0395C15.7759 1.82544 16.3729 2.42239 16.3729 3.15877V6.10403" stroke="#B8FF65" stroke-width="1.2" stroke-linecap="round"/>
<path d="M11.2938 4.2981H12.7931" stroke="#B8FF65" stroke-width="1.2" stroke-linecap="round"/>
<path d="M15.9842 11.1501L15.9842 15.9843" stroke="#B8FF65" stroke-width="1.2" stroke-linecap="round"/>
<path d="M15.9842 7.74438V8.19141" stroke="#B8FF65" stroke-width="1.2" stroke-linecap="round"/>
</svg>
