<svg width="74" height="87" viewBox="0 0 74 87" fill="none" xmlns="http://www.w3.org/2000/svg">
<path d="M33.6113 0.770508V0H33.7803L33.9395 0.0556641L38.3857 1.60059C38.4643 1.57456 38.555 1.54448 38.6562 1.51172C39.0241 1.39266 39.5329 1.23369 40.0938 1.07422C41.1682 0.768735 42.592 0.414062 43.5498 0.414062L43.6582 0.418945C43.9106 0.441753 44.1581 0.545005 44.3584 0.734375C44.5644 0.929117 44.6593 1.15687 44.7051 1.31543C44.7917 1.61584 44.7785 1.93235 44.7568 2.15723C44.7102 2.64261 44.5626 3.23447 44.4102 3.7627C44.2685 4.25348 44.1051 4.73914 43.9717 5.12207C44.0536 5.1713 44.1425 5.2241 44.2373 5.28125C44.8607 5.65684 45.7583 6.20069 46.8545 6.87402C49.0467 8.22054 52.0374 10.0865 55.2285 12.1641L54.6836 13L54.7061 13.0146L55.251 12.1758C58.5239 14.3004 63.1746 18.2981 67.0156 23.0273C70.831 27.725 74 33.3309 74 38.6523C73.9999 43.8125 72.5519 47.7021 71.0889 50.3105C70.3585 51.6127 69.6252 52.5942 69.0684 53.2559C68.7898 53.5868 68.5546 53.8388 68.3857 54.0107C68.3015 54.0965 68.2333 54.1627 68.1846 54.209C68.1657 54.2269 68.1487 54.2409 68.1357 54.2529L53.0361 69.9541L53.0127 69.9775L52.9883 70L40.8125 81.085L42.083 83.7168L41.1816 84.1514L42.084 83.7188L42.0869 83.7246L42.1025 83.7598C42.1118 83.7804 42.1242 83.808 42.1377 83.8408C42.1647 83.9062 42.1998 83.9967 42.2344 84.1045C42.2998 84.3086 42.3808 84.6269 42.3809 84.9795C42.3809 85.3312 42.2968 85.8321 41.9023 86.2422C41.5009 86.6595 40.9474 86.8086 40.3848 86.8086C38.9853 86.8085 37.6393 86.3268 36.6885 85.8867C36.3171 85.7148 35.9944 85.5405 35.7354 85.3936C35.1913 85.8347 34.5818 86.189 33.9346 86.4375L33.9326 86.4385C33.213 86.7126 32.5951 86.8856 32.0693 86.959C31.5557 87.0306 31.0413 87.0195 30.5889 86.8281C30.0867 86.6156 29.7603 86.2227 29.6162 85.7578C29.487 85.3407 29.5186 84.9196 29.582 84.5879C29.6956 83.994 29.9724 83.3862 30.2109 82.9316C29.8663 82.7455 29.4893 82.5265 29.0918 82.2812C28.1923 81.7263 27.1134 81.0016 25.916 80.1533C23.5199 78.4558 20.6182 76.241 17.6719 73.8447C11.8137 69.0802 5.65196 63.4969 2.98633 59.8057C0.212486 55.9705 -0.187491 51.3847 0.0634766 47.8555C0.189785 46.0794 0.483402 44.5374 0.745117 43.4385C0.87617 42.8882 0.999896 42.4464 1.0918 42.1396C1.13771 41.9864 1.17502 41.8663 1.20215 41.7832C1.21399 41.7469 1.22303 41.7174 1.23047 41.6953C1.99608 38.268 4.47496 34.3419 7.62012 30.4502C10.8116 26.5012 14.7888 22.4682 18.6592 18.8555C22.5327 15.2399 26.3167 12.029 29.1309 9.72266C30.5385 8.56905 31.7054 7.64041 32.5205 7C32.9279 6.6799 33.2475 6.43127 33.4658 6.2627C33.5163 6.22372 33.5611 6.18857 33.6006 6.1582C33.6029 6.13558 33.6074 6.10824 33.6074 6.0752C33.6074 5.81376 33.505 5.17248 32.7695 4.02539C32.338 3.35229 32.0707 2.77111 31.9609 2.25781C31.8479 1.7288 31.8919 1.20713 32.1719 0.770508C32.442 0.349435 32.8325 0.16427 33.0898 0.0839844C33.2224 0.0426658 33.3401 0.02212 33.4268 0.0117188C33.4708 0.00643248 33.5093 0.00361142 33.54 0.00195312C33.5554 0.00112752 33.5692 0.000304169 33.5811 0H33.6094C33.6101 0.000459393 33.6112 0.0190661 33.6113 0.770508ZM41.4473 11.6846C40.5915 12.127 39.3658 12.7842 37.8965 13.6406C34.9553 15.3549 31.0479 17.8594 27.1709 21.0225C19.3553 27.3989 11.9405 36.2248 12.3203 46.4746L12.3213 46.4932V46.542C12.3218 46.5685 12.3229 46.6111 12.3252 46.6689C12.3299 46.7853 12.3397 46.9637 12.3594 47.1982C12.3988 47.6676 12.4792 48.3626 12.6406 49.2393C12.9635 50.9928 13.612 53.4724 14.916 56.335C17.4803 61.964 22.5972 69.1135 32.8369 75.1504C33.0127 75.0596 33.236 74.9461 33.499 74.8057C34.2318 74.4144 35.2845 73.8331 36.5566 73.0791C39.103 71.5699 42.5198 69.372 46.0059 66.6152C53.0337 61.0575 60.1091 53.4115 61.25 44.7236L61.252 44.7129L61.2578 44.666C61.2624 44.6293 61.2692 44.5712 61.2773 44.4941C61.2937 44.34 61.3158 44.107 61.3359 43.8037C61.3762 43.1964 61.4098 42.3067 61.3799 41.1973C61.32 38.9765 61.0059 35.885 59.9912 32.417C57.9948 25.5941 53.2776 17.2785 42.3281 11.2393C42.1079 11.3482 41.8108 11.4966 41.4473 11.6846ZM37.5723 32.6807C43.211 32.6808 47.7256 37.4173 47.7256 43.1973C47.7256 48.9641 43.2118 53.7137 37.5723 53.7139C31.9336 53.7136 27.4199 48.9771 27.4199 43.1973C27.4199 37.4174 31.9336 32.6809 37.5723 32.6807Z" fill="#FFC800"/>
</svg>
