<svg width="32" height="32" viewBox="0 0 32 32" fill="none" xmlns="http://www.w3.org/2000/svg">
<path d="M23.866 23.025C20.7021 23.0681 17.6488 21.8614 15.3693 19.6668C13.0897 17.4722 11.7679 14.467 11.6909 11.3037C11.6914 9.75155 12.0064 8.2156 12.6167 6.78848C13.227 5.36136 14.1201 4.07262 15.242 3C11.916 3.32839 8.82812 4.87195 6.56935 7.33516C4.31058 9.79837 3.03969 13.0082 3 16.35C3.08061 19.9629 4.58991 23.3966 7.19728 25.8989C9.80466 28.4012 13.2975 29.768 16.9107 29.7C19.6014 29.7235 22.2412 28.9669 24.511 27.5216C26.7807 26.0764 28.583 24.0045 29.7 21.5565C27.9051 22.5169 25.9017 23.0212 23.866 23.025Z" stroke="#FFC800" stroke-width="1.5" stroke-linecap="round" stroke-linejoin="round"/>
</svg>
