<svg width="28" height="28" viewBox="0 0 28 28" fill="none" xmlns="http://www.w3.org/2000/svg">
<path d="M2.33325 19.7746L5.29132 15.7208M20.5747 9.80469L17.1236 14.2418M9.72214 14.7774L12.6865 15.7208" stroke="#FFC800" stroke-width="1.2" stroke-linecap="round"/>
<path d="M2.33325 3.88867V19.665C2.33325 21.8433 4.09908 23.6091 6.27734 23.6091V23.6091H9.56408H22.0537" stroke="#FFC800" stroke-width="1.2" stroke-linecap="round"/>
<path d="M7.26343 11.3906C8.56573 11.3906 9.6218 12.4467 9.62183 13.749C9.62183 15.0513 8.56575 16.1074 7.26343 16.1074C5.96113 16.1074 4.90503 15.0513 4.90503 13.749C4.90506 12.4467 5.96115 11.3907 7.26343 11.3906Z" stroke="#FFC800" stroke-width="1.2"/>
<path d="M15.1519 13.3623C16.4542 13.3623 17.5102 14.4184 17.5103 15.7207C17.5103 17.023 16.4542 18.0791 15.1519 18.0791C13.8496 18.0791 12.7935 17.023 12.7935 15.7207C12.7935 14.4184 13.8496 13.3623 15.1519 13.3623Z" stroke="#FFC800" stroke-width="1.2"/>
<path d="M22.0537 5.47461C23.356 5.47461 24.4121 6.53071 24.4121 7.83301C24.4121 9.13533 23.356 10.1914 22.0537 10.1914C20.7514 10.1914 19.6953 9.13531 19.6953 7.83301C19.6953 6.53073 20.7514 5.47464 22.0537 5.47461Z" stroke="#FFC800" stroke-width="1.2"/>
</svg>
