<svg width="628" height="129" viewBox="0 0 628 129" fill="none" xmlns="http://www.w3.org/2000/svg">
<path d="M7.384 95V21.68H40.872C46.3493 21.68 50.9947 22.616 54.808 24.488C58.6213 26.36 61.4987 29.0293 63.44 32.496C65.4507 35.9627 66.456 40.1573 66.456 45.08C66.456 50.0027 65.4507 54.232 63.44 57.768C61.4987 61.2347 58.6213 63.904 54.808 65.776C50.9947 67.648 46.3493 68.584 40.872 68.584H23.504V95H7.384ZM23.504 56.104H38.168C42.328 56.104 45.4827 55.168 47.632 53.296C49.8507 51.424 50.96 48.6853 50.96 45.08C50.96 41.4747 49.8507 38.7707 47.632 36.968C45.4827 35.1653 42.328 34.264 38.168 34.264H23.504V56.104ZM94.1265 96.144C87.5398 96.144 82.7212 94.4453 79.6705 91.048C76.6198 87.5813 75.0945 82.4507 75.0945 75.656V21.68H90.7985V75.032C90.7985 76.7653 91.0758 78.2907 91.6305 79.608C92.1852 80.856 92.9825 81.792 94.0225 82.416C95.1318 83.04 96.5185 83.352 98.1825 83.352C98.8758 83.352 99.6038 83.3173 100.367 83.248C101.129 83.1787 101.857 83.04 102.551 82.832L102.343 95C101.025 95.3467 99.6732 95.624 98.2865 95.832C96.9692 96.04 95.5825 96.144 94.1265 96.144ZM126.991 96.144C123.247 96.144 119.885 95.416 116.903 93.96C113.922 92.504 111.599 90.528 109.935 88.032C108.271 85.536 107.439 82.728 107.439 79.608C107.439 75.864 108.41 72.9173 110.351 70.768C112.293 68.5493 115.447 66.9893 119.815 66.088C124.183 65.1173 129.973 64.632 137.183 64.632H142.695V72.744H137.287C134.583 72.744 132.295 72.848 130.423 73.056C128.621 73.264 127.13 73.6453 125.951 74.2C124.773 74.6853 123.906 75.3093 123.351 76.072C122.866 76.8347 122.623 77.8053 122.623 78.984C122.623 80.9253 123.282 82.52 124.599 83.768C125.986 85.016 127.962 85.64 130.527 85.64C132.538 85.64 134.306 85.1893 135.831 84.288C137.426 83.3173 138.674 82.0347 139.575 80.44C140.477 78.776 140.927 76.904 140.927 74.824V62.864C140.927 59.8133 140.234 57.664 138.847 56.416C137.461 55.0987 135.103 54.44 131.775 54.44C129.002 54.44 126.055 54.8907 122.935 55.792C119.885 56.624 116.834 57.9067 113.783 59.64L109.519 49.136C111.322 47.888 113.506 46.8133 116.071 45.912C118.706 44.9413 121.445 44.2133 124.287 43.728C127.13 43.1733 129.834 42.896 132.399 42.896C137.738 42.896 142.106 43.6933 145.503 45.288C148.97 46.8133 151.57 49.2053 153.303 52.464C155.037 55.6533 155.903 59.7787 155.903 64.84V95H141.239V84.704H141.967C141.551 87.0613 140.65 89.1067 139.263 90.84C137.946 92.504 136.247 93.8213 134.167 94.792C132.087 95.6933 129.695 96.144 126.991 96.144ZM167.618 95V43.936H183.01V53.504H181.866C183.461 50.1067 185.818 47.5067 188.938 45.704C192.127 43.832 195.733 42.896 199.754 42.896C203.845 42.896 207.207 43.6933 209.842 45.288C212.477 46.8133 214.453 49.1707 215.77 52.36C217.087 55.48 217.746 59.4667 217.746 64.32V95H202.042V65.048C202.042 62.6907 201.73 60.784 201.106 59.328C200.551 57.8027 199.685 56.728 198.506 56.104C197.397 55.4107 195.975 55.064 194.242 55.064C192.023 55.064 190.082 55.5493 188.418 56.52C186.823 57.4213 185.575 58.7387 184.674 60.472C183.773 62.2053 183.322 64.216 183.322 66.504V95H167.618Z" fill="white"/>
<g clip-path="url(#clip0_4027_10225)">
<path d="M340.996 48.9651C330.564 48.9651 322.186 52.2717 315.863 56.9974C317.601 52.7447 320.132 48.9651 323.133 45.9715C328.665 40.4597 336.412 37.1532 344.789 37.1532C351.904 37.1532 360.28 40.7751 365.972 45.6585L382.409 20.3025C373.242 12.901 360.28 8.96367 345.263 8.96367C325.03 8.96367 309.697 16.5229 298.634 27.5464C291.856 34.2975 286.68 42.4924 283.062 51.2245H299.909C301.45 51.2245 302.863 52.0795 303.581 53.442C304.296 54.807 304.197 56.4554 303.317 57.7218L278.309 93.8426C280.112 100.774 283.513 106.82 288.359 111.647C295.948 119.206 307.485 123.616 321.395 123.616C348.58 123.616 370.87 104.087 370.87 77.943C370.87 59.6732 356.96 48.9651 340.996 48.9651ZM290.35 0L241 75.3264H262.898L290.35 0ZM275.818 55.3663L248.931 129L299.911 55.3663H275.818ZM321.239 97.7873C318.077 97.7873 315.392 96.5283 313.651 94.7937C311.912 93.0615 310.962 90.541 310.962 87.7075C310.962 79.5175 316.812 71.8005 325.03 71.8005C331.195 71.8005 335.304 76.2109 335.304 81.8804C335.304 90.0704 329.457 97.7873 321.237 97.7873H321.239Z" fill="#FFC800"/>
<path d="M506.013 43.887L520.065 44.0866C528.404 44.0866 533.509 45.6955 536.868 49.044C539.26 51.4266 540.422 54.5828 540.422 58.1234C540.422 69.3933 531.891 76.9279 517.545 76.9279H511.147L507.852 89.1637L491.945 89.0306L506.013 43.887ZM516.77 66.173C522.522 66.173 525.173 63.5982 525.173 60.1857C525.173 59.2199 524.786 58.254 524.075 57.5469C523.042 56.517 521.232 56.1301 519.552 56.1301H516.709L514.057 66.1755H516.77V66.173Z" fill="#FFC800"/>
<path d="M545.724 42.1549H560.396L547.727 89.1637H533.057L545.724 42.1549Z" fill="#FFC800"/>
<path d="M552.965 79.2465C552.965 77.4429 553.224 75.4471 553.806 73.3233L558.975 54.0038H573.647L568.929 71.5197C568.67 72.4215 568.542 73.4514 568.542 74.1585C568.542 76.0262 569.511 77.2482 571.642 77.2482C574.549 77.2482 576.101 75.3166 577.137 71.5172L581.852 54.0013H596.524L587.088 89.1612H572.419L573.58 84.7829C571.255 87.6163 567.442 89.9989 563.047 89.9989C556.585 89.9989 552.965 85.8128 552.965 79.244V79.2465Z" fill="#FFC800"/>
<path d="M587.865 84.1398L594.329 75.7675C597.495 78.2806 602.988 80.5326 606.995 80.5326C608.482 80.5326 609.065 79.9512 609.065 79.3081C609.065 78.1501 607.967 77.571 603.572 75.9596C597.885 73.8998 593.942 71.3226 593.942 65.7862C593.942 58.7665 599.888 53.1636 610.485 53.1636C617.595 53.1636 623.606 55.29 627.159 57.9929L620.698 66.3652C617.985 64.4976 613.462 62.6299 609.97 62.6299C608.354 62.6299 607.644 63.0808 607.644 63.788C607.644 64.7538 608.418 65.1407 612.749 66.6855C618.372 68.6813 622.764 71.1279 622.764 77.3099C622.764 83.1715 618.629 89.9965 606.739 89.9965C598.726 89.9965 592.198 87.4217 587.865 84.1349V84.1398Z" fill="#FFC800"/>
<path d="M419.783 75.9227C419.586 76.0064 419.383 76.1099 419.191 76.1838C417.314 76.8516 415.386 77.1842 413.41 77.1842C411.435 77.1842 409.829 76.8762 408.298 76.2602C406.815 75.5925 405.53 74.6685 404.443 73.4908C403.355 72.3106 402.517 70.9012 401.922 69.2578C401.33 67.5651 401.032 65.7197 401.032 63.719C401.032 61.6148 401.328 59.7422 401.922 58.1013C402.514 56.4579 403.355 55.0485 404.443 53.8683C405.53 52.6881 406.84 51.7912 408.372 51.1752C409.952 50.5593 411.706 50.2513 413.635 50.2513C415.958 50.2513 418.056 50.7638 419.933 51.7912C421.859 52.7669 423.64 54.228 425.27 56.177L436.46 45.9444C433.84 42.6083 430.506 40.0433 426.454 38.2496C422.451 36.4559 417.881 35.5566 412.744 35.5566C408.446 35.5566 404.492 36.2489 400.886 37.6337C397.33 38.9666 394.242 40.8909 391.623 43.4041C389.004 45.9173 386.979 48.8937 385.546 52.3308C384.114 55.768 383.398 59.5648 383.398 63.719C383.398 67.8731 384.114 71.67 385.546 75.1071C386.979 78.5443 388.979 81.5182 391.549 84.0338C394.168 86.547 397.232 88.496 400.739 89.8807C404.295 91.2136 408.174 91.8814 412.374 91.8814C416.177 91.8814 420.106 91.2925 424.158 90.1123C428.21 88.9321 431.816 87.2394 434.977 85.0342V62.2579H419.785V75.9227H419.783Z" fill="white"/>
<path d="M449.245 84.9307L437.244 46.3879H450.263L456.789 68.287L463.712 46.3879H475.337L481.878 68.5852L488.786 46.3879H500.789L488.786 84.9307H475.231L469.182 64.3201L462.802 84.9307H449.247H449.245Z" fill="white"/>
<path d="M340.996 48.9651C330.564 48.9651 322.186 52.2717 315.863 56.9974C317.601 52.7447 320.132 48.9651 323.133 45.9715C328.665 40.4597 336.412 37.1532 344.789 37.1532C351.904 37.1532 360.28 40.7751 365.972 45.6586L382.409 20.3026C373.242 12.901 360.28 8.96368 345.263 8.96368C325.03 8.96368 309.697 16.5229 298.634 27.5464C291.856 34.2975 286.68 42.4924 283.062 51.2245H299.909C301.45 51.2245 302.863 52.0795 303.581 53.442C304.296 54.807 304.197 56.4529 303.317 57.7218L278.309 93.8426C280.112 100.774 283.513 106.82 288.359 111.647C295.948 119.206 307.485 123.616 321.395 123.616C348.58 123.616 370.87 104.088 370.87 77.9431C370.87 59.6732 356.96 48.9651 340.996 48.9651ZM321.239 97.7873C318.077 97.7873 315.392 96.5283 313.651 94.7937C311.912 93.0616 310.962 90.541 310.962 87.7075C310.962 79.5175 316.812 71.8006 325.03 71.8006C331.195 71.8006 335.304 76.2109 335.304 81.8804C335.304 90.0704 329.457 97.7873 321.237 97.7873H321.239Z" fill="white"/>
</g>
<defs>
<clipPath id="clip0_4027_10225">
<rect width="386.157" height="129" fill="white" transform="translate(241)"/>
</clipPath>
</defs>
</svg>
