<svg width="24" height="24" viewBox="0 0 24 24" fill="none" xmlns="http://www.w3.org/2000/svg">
<path d="M9.6631 22L9.10793 7.56543H5.22171L4.66653 22H6.94085" stroke="#D1D1D0" stroke-width="1.2" stroke-linecap="round"/>
<path d="M6.88718 6.4551V6.43711C6.88718 5.7089 7.47751 5.11857 8.20572 5.11857H8.76689C9.18517 5.11857 9.52425 4.77949 9.52425 4.36121V4.36121C9.52425 3.94292 9.18517 3.60384 8.76689 3.60384H7.6891C7.24621 3.60384 6.88718 3.24481 6.88718 2.80192V2.80192C6.88718 2.35903 7.24621 2 7.6891 2H8.13632" stroke="#D1D1D0" stroke-width="1.2" stroke-linecap="round"/>
<path d="M9.66309 13.256L18.8235 10.8965V22H16.9478" stroke="#D1D1D0" stroke-width="1.2" stroke-linecap="round"/>
<path d="M14.5479 14.2812L12.8539 17.6041L14.9008 16.6442L13.348 19.967" stroke="#D1D1D0" stroke-width="1.2" stroke-linecap="round"/>
</svg>
