<svg width="24" height="24" viewBox="0 0 24 24" fill="none" xmlns="http://www.w3.org/2000/svg">
<path d="M9.66307 22L9.1079 7.56543H5.22168L4.6665 22H6.94082" stroke="#FFC800" stroke-width="1.2" stroke-linecap="round"/>
<path d="M6.88721 6.4551V6.43711C6.88721 5.7089 7.47754 5.11857 8.20575 5.11857H8.76692C9.1852 5.11857 9.52429 4.77949 9.52429 4.36121V4.36121C9.52429 3.94292 9.1852 3.60384 8.76692 3.60384H7.68913C7.24624 3.60384 6.88721 3.24481 6.88721 2.80192V2.80192C6.88721 2.35903 7.24624 2 7.68913 2H8.13635" stroke="#FFC800" stroke-width="1.2" stroke-linecap="round"/>
<path d="M9.66309 13.256L18.8235 10.8965V22H16.9478" stroke="#FFC800" stroke-width="1.2" stroke-linecap="round"/>
<path d="M14.5477 14.2812L12.8538 17.6041L14.9006 16.6442L13.3478 19.967" stroke="#FFC800" stroke-width="1.2" stroke-linecap="round"/>
</svg>
